<?xml version="1.0" encoding="UTF-8"?>
<svg version="1.1" xmlns="http://www.w3.org/2000/svg" width="900" height="292" viewBox="0 0 702 228">
<path d="M0 0 C3.52153952 1.99285716 6.42227747 4.18899587 9.4375 6.875 C19.58973319 14.98196578 31.88865441 16.67178076 44.29736328 19.12792969 C56.09766748 21.52197779 65.6722096 25.20192939 74.62109375 33.50390625 C78.12694112 36.72390515 81.49230368 38.83352792 85.8125 40.875 C92.824035 44.21760599 99.63095723 48.44643585 104 55 C105.7325 55.61875 105.7325 55.61875 107.5 56.25 C108.655 56.8275 109.81 57.405 111 58 C111.52198992 59.6330528 112.02853615 61.27367378 112.43212891 62.93994141 C113.27174094 65.98579108 114.58651127 68.77842449 115.86889648 71.65991211 C119.74182951 80.36759634 122.62804556 88.52421297 124 98 C124.15210938 98.97839844 124.30421875 99.95679687 124.4609375 100.96484375 C126.88157464 121.00234008 120.39609746 141.43446204 108.125 157.25 C106.77008671 158.85055597 105.39514858 160.43439153 104 162 C103.33484375 162.75925781 102.6696875 163.51851562 101.984375 164.30078125 C90.09525553 177.04855935 72.70515916 186.62240163 55.08984375 187.30078125 C53.37250233 187.32030213 51.65491577 187.32371133 49.9375 187.3125 C49.02137939 187.30686035 48.10525879 187.3012207 47.16137695 187.29541016 C25.06465414 186.90649859 4.6617153 179.7238683 -11.5859375 164.5078125 C-27.99863128 147.45773256 -33.69232728 128.21429909 -33.46826172 105.10107422 C-32.89116511 85.30756693 -24.94199568 66.36445767 -10.49609375 52.6171875 C-8.36305045 50.70112043 -6.20750139 48.82936458 -4 47 C-5.69493119 43.4682364 -7.7282378 40.26748441 -9.87890625 37 C-12.24772881 32.77408658 -12.17731994 28.78763848 -12 24 C-11.67 23.34 -11.34 22.68 -11 22 C-9.66666667 21.66666667 -8.33333333 21.33333333 -7 21 C-5.75075566 18.50151131 -5.78492614 16.53728422 -5.625 13.75 C-5.1634196 8.15974854 -4.05741859 4.05741859 0 0 Z " fill="#03050B" transform="translate(42,14)"/>
<path d="M0 0 C3.52854452 1.30069222 6.72654626 2.94301412 10.01025391 4.76660156 C19.77237896 10.06441556 29.65903909 12.27664974 40.47509766 14.47070312 C53.34016396 17.16761511 66.74734937 21.16849117 74.6953125 32.39453125 C78.24852415 38.11915001 81 43.13655256 81 50 C80.01 50.99 80.01 50.99 79 52 C77.96838392 53.98387708 76.96476382 55.98276656 76 58 C74.35 58 72.7 58 71 58 C70.67 60.31 70.34 62.62 70 65 C70.33 64.67 70.66 64.34 71 64 C73.33944736 64.28730055 75.6739143 64.61936779 78 65 C76.68 65.33 75.36 65.66 74 66 C73.93941406 66.55171875 73.87882812 67.1034375 73.81640625 67.671875 C72.63876523 71.03012402 70.48509669 72.79914749 67.9375 75.25 C66.55884766 76.58804688 66.55884766 76.58804688 65.15234375 77.953125 C64.44207031 78.62859375 63.73179688 79.3040625 63 80 C65.58504604 81.98223068 68.04049858 83.62594577 71 85 C71 85.99 71 86.98 71 88 C69.906875 87.835 68.81375 87.67 67.6875 87.5 C64.12474127 86.93281816 64.12474127 86.93281816 61 87 C61.33 88.32 61.66 89.64 62 91 C61.01 91.66 60.02 92.32 59 93 C65.3327492 96.28874656 70.87391001 97.70245971 78 98 C77.505 99.485 77.505 99.485 77 101 C76.90899982 102.69091033 76.86843672 104.384792 76.859375 106.078125 C76.83037109 107.57279297 76.83037109 107.57279297 76.80078125 109.09765625 C76.76718186 111.18340279 76.74871767 113.26945325 76.74609375 115.35546875 C76.53685178 123.91236414 74.38675763 127.44390449 68.5 133.625 C67.2625 134.800625 67.2625 134.800625 66 136 C65.175 136.94875 64.35 137.8975 63.5 138.875 C61 141 61 141 58.69921875 140.859375 C55.45232989 139.82563325 53.11496164 138.31315104 50.3125 136.375 C49.25546875 135.65054688 48.1984375 134.92609375 47.109375 134.1796875 C44.42085791 132.29502351 41.74070985 130.39925339 39.0625 128.5 C32.3389092 123.75649581 25.30012026 119.39736069 18.11328125 115.390625 C17.41589844 114.93171875 16.71851563 114.4728125 16 114 C16 113.34 16 112.68 16 112 C14.9790625 111.7215625 14.9790625 111.7215625 13.9375 111.4375 C6.80583592 107.94753673 2.46624045 101.65152188 -0.91015625 94.62109375 C-3.03339349 87.56646678 -2.43707134 80.28452231 -2 73 C-2.99 73 -3.98 73 -5 73 C-5 68.71 -5 64.42 -5 60 C-5.66 60 -6.32 60 -7 60 C-9.74341572 68.026086 -11.65954675 75.50569131 -12 84 C-11.01 84 -10.02 84 -9 84 C-8.51005066 87.12342704 -8.30719122 89.89810615 -9 93 C-10.85394512 94.65530815 -12.76423567 95.63253357 -14.95703125 96.79296875 C-18.34691802 98.79578904 -19.93891456 101.32365103 -21 105 C-21.37024259 108.64071881 -21.56216796 112.23179629 -21.62890625 115.890625 C-22 119 -22 119 -23.52734375 120.921875 C-24.01332031 121.27765625 -24.49929687 121.6334375 -25 122 C-27.3787581 116.3116654 -28.70553358 111.18379478 -29 105 C-29.06445312 103.74960938 -29.12890625 102.49921875 -29.1953125 101.2109375 C-29.83847211 82.81657261 -25.14581763 65.27443881 -12.4375 51.4375 C-10.66659076 49.58434243 -8.85420972 47.76980757 -7 46 C-6.50516113 45.51829346 -6.01032227 45.03658691 -5.50048828 44.5402832 C-3.16580047 42.40145846 -1.65247823 41.0507262 1.5625 40.80078125 C2.366875 40.96964844 3.17125 41.13851562 4 41.3125 C7.04066968 41.92160851 8.59794697 42.15030598 11.5390625 41.05078125 C16.7825122 39.45880837 21.93026145 39.79162945 27.375 39.875 C29.05142578 39.88853516 29.05142578 39.88853516 30.76171875 39.90234375 C33.50803462 39.92581654 36.25390472 39.95865272 39 40 C32.27595107 37.70330839 25.88295266 37.62726053 18.82617188 37.52148438 C12.04414493 37.32013528 6.20130914 36.61570381 0.7578125 32.16796875 C-2.45940432 28.26574644 -4.86255621 25.05530575 -6 20 C-5.33613281 20.27714844 -4.67226563 20.55429687 -3.98828125 20.83984375 C-3.10527344 21.20207031 -2.22226562 21.56429687 -1.3125 21.9375 C-0.44238281 22.29714844 0.42773438 22.65679687 1.32421875 23.02734375 C3.88179265 23.9570312 6.3221323 24.54162625 9 25 C9 24.34 9 23.68 9 23 C8.401875 22.773125 7.80375 22.54625 7.1875 22.3125 C3.09405797 19.85643478 1.4976442 15.37870551 0 11 C-0.1953125 8.10546875 -0.1953125 8.10546875 -0.125 5.1875 C-0.10695313 4.21167969 -0.08890625 3.23585938 -0.0703125 2.23046875 C-0.04710938 1.49441406 -0.02390625 0.75835938 0 0 Z " fill="#020307" transform="translate(43,24)"/>
<path d="M0 0 C3.52153952 1.99285716 6.42227747 4.18899587 9.4375 6.875 C19.58973319 14.98196578 31.88865441 16.67178076 44.29736328 19.12792969 C56.09766748 21.52197779 65.6722096 25.20192939 74.62109375 33.50390625 C78.12694112 36.72390515 81.49230368 38.83352792 85.8125 40.875 C92.824035 44.21760599 99.63095723 48.44643585 104 55 C105.7325 55.61875 105.7325 55.61875 107.5 56.25 C108.655 56.8275 109.81 57.405 111 58 C111.52198992 59.6330528 112.02853615 61.27367378 112.43212891 62.93994141 C113.27174094 65.98579108 114.58651127 68.77842449 115.86889648 71.65991211 C119.74182951 80.36759634 122.62804556 88.52421297 124 98 C124.15210938 98.97839844 124.30421875 99.95679687 124.4609375 100.96484375 C126.91825485 121.30597068 120.20472777 141.77974388 107.6875 157.75 C103.5915875 162.73912722 103.5915875 162.73912722 99.640625 163.38671875 C96.73905976 164.06060299 95.14049148 165.06389975 92.75 166.8125 C88.24433511 170.10705572 84.46428508 171.57142885 79 174 C79 167.4 79 160.8 79 154 C82.465 152.02 82.465 152.02 86 150 C88.3909907 147.41139607 88.3909907 147.41139607 90 145 C91.32 145.33 92.64 145.66 94 146 C94.99 144.68 95.98 143.36 97 142 C96.34 141.67 95.68 141.34 95 141 C95.52268466 138.23723823 96.10869587 135.6739124 97 133 C97.65717905 127.41397809 96.51693964 124.28083416 93.41796875 119.79296875 C89.58478109 114.94604551 85.81821016 113.36899063 80 112 C78.45049732 113.54950268 78.78344807 115.09990594 78.68359375 117.25390625 C78.64169922 118.10791016 78.59980469 118.96191406 78.55664062 119.84179688 C78.51732422 120.73962891 78.47800781 121.63746094 78.4375 122.5625 C78.37272461 123.91504883 78.37272461 123.91504883 78.30664062 125.29492188 C78.20021858 127.52978485 78.09820012 129.76476308 78 132 C77.67 132 77.34 132 77 132 C76.97105453 128.54168414 76.95322 125.08339928 76.9375 121.625 C76.92912109 120.64015625 76.92074219 119.6553125 76.91210938 118.640625 C76.90888672 117.69960937 76.90566406 116.75859375 76.90234375 115.7890625 C76.89710693 114.91975098 76.89187012 114.05043945 76.88647461 113.15478516 C77 111 77 111 78 109 C77.21496094 108.90203125 76.42992188 108.8040625 75.62109375 108.703125 C69.16901391 107.78479216 64.40002666 106.68183636 59 103 C59.99 102.34 60.98 101.68 62 101 C61.67 99.02 61.34 97.04 61 95 C64.63 95.99 68.26 96.98 72 98 C71.33029489 94.93600134 71.33029489 94.93600134 69.15234375 93.83203125 C68.42144531 93.49558594 67.69054687 93.15914063 66.9375 92.8125 C65.83728516 92.29623047 65.83728516 92.29623047 64.71484375 91.76953125 C64.14894531 91.51558594 63.58304687 91.26164062 63 91 C65.83387922 87.62076945 68.65608651 84.33627097 71.8125 81.25 C74.20200031 79.11828729 74.20200031 79.11828729 75 76 C75.66 75.67 76.32 75.34 77 75 C73.37114676 74.84850702 73.37114676 74.84850702 70 76 C70.52268466 73.23723823 71.10869587 70.6739124 72 68 C72.78375 67.9175 73.5675 67.835 74.375 67.75 C77.14749104 67.27193661 77.14749104 67.27193661 78.3125 64.9375 C78.539375 64.298125 78.76625 63.65875 79 63 C77.515 62.01 77.515 62.01 76 61 C77.98 60.67 79.96 60.34 82 60 C79.72286582 50.00229658 75.25202515 40.11301972 66.37329102 34.37084961 C57.23170608 29.09052872 47.49474044 26.79653875 37.25 24.6875 C25.91784714 22.24642359 15.9181167 19.07501156 6 13 C5.04222656 12.42765625 4.08445312 11.8553125 3.09765625 11.265625 C2.05931641 10.63914062 2.05931641 10.63914062 1 10 C1.27295527 17.30155351 2.08950366 23.69142925 6 30 C8.08555036 31.90332221 8.08555036 31.90332221 10 33 C10 33.66 10 34.32 10 35 C4.72250715 34.46148032 0.74354436 33.22656164 -4 31 C-4 31.99 -4 32.98 -4 34 C-4.66 34 -5.32 34 -6 34 C-6 32.02 -6 30.04 -6 28 C-5.34 28 -4.68 28 -4 28 C-4 27.01 -4 26.02 -4 25 C-4.99 24.67 -5.98 24.34 -7 24 C-6.74320437 21.4562127 -6.47007458 18.91594626 -6.1875 16.375 C-6.11724609 15.66214844 -6.04699219 14.94929688 -5.97460938 14.21484375 C-5.33736727 8.65809258 -4.0789069 4.0789069 0 0 Z " fill="#05070A" transform="translate(42,14)"/>
<path d="M0 0 C0.91177505 0.01041321 1.82355011 0.02082642 2.76295471 0.03155518 C3.75246628 0.04917908 4.74197784 0.06680298 5.76147461 0.08496094 C7.29003334 0.1097049 7.29003334 0.1097049 8.84947205 0.13494873 C11.01249345 0.17250703 13.17546457 0.21306051 15.33837891 0.25634766 C18.62583659 0.31861651 21.91314564 0.36035946 25.20092773 0.40136719 C27.30446741 0.44045843 29.40798457 0.48078456 31.51147461 0.52246094 C32.48681656 0.53198792 33.46215851 0.54151489 34.46705627 0.55133057 C43.03811216 0.76263179 50.88093403 2.44296766 57.60131836 8.06933594 C62.38736408 14.4967499 63.31852491 21.27134476 62.60131836 29.06933594 C61.26729042 34.84662229 58.58771486 38.7597181 54.60131836 43.06933594 C55.92131836 43.72933594 57.24131836 44.38933594 58.60131836 45.06933594 C58.60131836 45.72933594 58.60131836 46.38933594 58.60131836 47.06933594 C59.19944336 47.29621094 59.79756836 47.52308594 60.41381836 47.75683594 C63.24408168 49.45499393 64.16132684 51.12078187 65.60131836 54.06933594 C67.85070189 63.31680155 67.59676882 72.79284998 62.60131836 81.06933594 C54.58305038 90.70787568 43.61905605 91.46697091 31.60131836 93.06933594 C19.06131836 93.06933594 6.52131836 93.06933594 -6.39868164 93.06933594 C-6.39868164 62.70933594 -6.39868164 32.34933594 -6.39868164 1.06933594 C-4.02528465 -0.11736256 -2.6448221 -0.0360063 0 0 Z M12.60131836 18.06933594 C12.60131836 24.66933594 12.60131836 31.26933594 12.60131836 38.06933594 C15.95597984 38.15071587 19.30864227 38.21001953 22.66381836 38.25683594 C24.07824219 38.29454102 24.07824219 38.29454102 25.52124023 38.33300781 C32.14583573 38.40225446 37.3500147 37.90111654 42.53881836 33.38183594 C44.1253234 29.92885438 44.41906657 26.79123666 43.60131836 23.06933594 C40.54427424 19.66291535 38.01459855 18.75165899 33.60131836 18.06933594 C31.90874591 17.99233308 30.21357837 17.96128526 28.51928711 17.97167969 C27.58793945 17.97490234 26.6565918 17.978125 25.69702148 17.98144531 C24.73731445 17.98982422 23.77760742 17.99820313 22.78881836 18.00683594 C21.80977539 18.01134766 20.83073242 18.01585938 19.82202148 18.02050781 C17.41509405 18.03224892 15.00819823 18.05018305 12.60131836 18.06933594 Z M12.60131836 54.06933594 C12.57243689 57.38181781 12.55456037 60.69426761 12.53881836 64.00683594 C12.53043945 64.95236328 12.52206055 65.89789063 12.51342773 66.87207031 C12.51020508 67.77119141 12.50698242 68.6703125 12.50366211 69.59667969 C12.49842529 70.4293335 12.49318848 71.2619873 12.48779297 72.11987305 C12.38488544 74.07450392 12.38488544 74.07450392 13.60131836 75.06933594 C17.28086493 75.35194978 20.97472924 75.30126324 24.66381836 75.31933594 C25.68926758 75.33996094 26.7147168 75.36058594 27.77124023 75.38183594 C34.70985508 75.41735028 41.13157462 75.10536171 46.60131836 70.31933594 C48.05245142 67.05428655 47.97337444 64.6038687 47.60131836 61.06933594 C46.2780815 57.9353539 45.43374792 56.49220685 42.38769531 54.94482422 C39.18186179 53.93754138 36.56468703 53.842195 33.20678711 53.87402344 C32.00473633 53.88046875 30.80268555 53.88691406 29.56420898 53.89355469 C27.69539063 53.91869141 27.69539063 53.91869141 25.78881836 53.94433594 C24.52360352 53.95335937 23.25838867 53.96238281 21.95483398 53.97167969 C18.83680272 53.995212 15.71915739 54.02809048 12.60131836 54.06933594 Z " fill="#FDFDFD" transform="translate(234.398681640625,47.9306640625)"/>
<path d="M0 0 C0.74886475 0.00523682 1.49772949 0.01047363 2.26928711 0.01586914 C3.07817383 0.0190918 3.88706055 0.02231445 4.72045898 0.02563477 C5.5705957 0.03401367 6.42073242 0.04239258 7.29663086 0.05102539 C8.15063477 0.05553711 9.00463867 0.06004883 9.88452148 0.06469727 C12.00108749 0.07652166 14.11761771 0.0944577 16.23413086 0.11352539 C17.17973187 4.08067529 17.33711948 7.73998224 17.29663086 11.81274414 C17.28889648 13.1050293 17.28116211 14.39731445 17.27319336 15.72875977 C17.25464597 17.75799019 17.23427158 19.78719622 17.21362305 21.81640625 C16.35661847 35.4399978 16.35661847 35.4399978 20.04663086 48.11352539 C23.3543251 51.13770298 25.09729455 52.00826277 29.60913086 52.42602539 C33.7277713 52.07097018 35.86041467 51.51261246 39.23413086 49.11352539 C43.18962044 43.49516811 43.83387336 38.07090131 43.84350586 31.36352539 C43.86004211 30.46480713 43.87657837 29.56608887 43.89361572 28.64013672 C43.9418119 25.79786147 43.9634031 22.95612009 43.98413086 20.11352539 C44.01231433 18.17469686 44.04224506 16.23589288 44.07397461 14.29711914 C44.15082146 9.56901569 44.19160359 4.84255726 44.23413086 0.11352539 C50.50413086 0.11352539 56.77413086 0.11352539 63.23413086 0.11352539 C63.3251127 8.85093189 63.39823478 17.5880151 63.44137955 26.32579136 C63.46210453 30.38469341 63.49013939 34.44324988 63.53588867 38.50195312 C63.57989378 42.43127186 63.60338082 46.36026182 63.61363983 50.28980827 C63.62093463 51.77627667 63.63517392 53.26273056 63.65705109 54.74905586 C63.82939328 66.96261974 63.24541611 80.83187245 54.87084961 90.53540039 C46.32923092 98.77123321 36.76029135 100.40922463 25.13256836 100.26586914 C15.51991767 99.760622 5.67923451 97.58752856 -1.76586914 91.11352539 C-1.16231506 87.2632666 0.00185689 84.2525138 1.79663086 80.80102539 C2.47918945 79.47651367 2.47918945 79.47651367 3.17553711 78.12524414 C3.52487305 77.46137695 3.87420898 76.79750977 4.23413086 76.11352539 C5.55477539 76.6375293 5.55477539 76.6375293 6.90209961 77.17211914 C8.06354492 77.6271582 9.22499023 78.08219727 10.42163086 78.55102539 C11.57018555 79.00348633 12.71874023 79.45594727 13.90209961 79.92211914 C21.62166071 82.68233735 28.47000908 82.87635005 36.21459961 80.10571289 C39.80300907 78.3427419 41.49780845 75.5861702 43.23413086 72.11352539 C43.30307806 70.74009708 43.31880794 69.36350437 43.29663086 67.98852539 C43.27600586 66.70977539 43.25538086 65.43102539 43.23413086 64.11352539 C42.4162207 64.80188477 42.4162207 64.80188477 41.58178711 65.50415039 C35.13311774 69.92486883 26.49787789 70.79075442 18.90209961 69.73852539 C10.92806817 67.87052388 5.7928002 64.61131641 1.39038086 57.68774414 C-2.02099435 50.09282434 -2.17042848 42.50349556 -2.39086914 34.30102539 C-2.42809082 33.11718262 -2.4653125 31.93333984 -2.50366211 30.71362305 C-2.71607512 23.4729823 -2.86112647 16.23228281 -2.89086914 8.98852539 C-2.89554199 8.19599365 -2.90021484 7.40346191 -2.9050293 6.58691406 C-2.88629291 0.18555595 -2.88629291 0.18555595 0 0 Z " fill="#FDFDFD" transform="translate(604.765869140625,71.886474609375)"/>
<path d="M0 0 C6.84733995 5.507643 10.54746792 13.46536055 11.54467773 22.12084961 C12.04040753 26.82341977 12.12873148 31.46654652 12.09765625 36.19140625 C12.0962413 37.02212143 12.09482635 37.85283661 12.09336853 38.70872498 C12.0878317 41.32668875 12.07529162 43.94456267 12.0625 46.5625 C12.05747681 48.35221229 12.05291535 50.14192595 12.04882812 51.93164062 C12.03788308 56.28779433 12.02066319 60.643882 12 65 C8.43954823 66.18681726 5.56191663 66.09689832 1.8125 66.0625 C0.54019531 66.05347656 -0.73210938 66.04445313 -2.04296875 66.03515625 C-3.01878906 66.02355469 -3.99460937 66.01195312 -5 66 C-5.495 62.535 -5.495 62.535 -6 59 C-6.66 59 -7.32 59 -8 59 C-8 59.66 -8 60.32 -8 61 C-16.58273902 66.90458704 -24.97908774 67.05274202 -35 66 C-38.23540823 65.19233568 -40.44395137 64.12475507 -43 62 C-43.57105469 61.53722656 -44.14210938 61.07445312 -44.73046875 60.59765625 C-49.74718572 55.72393358 -50.85777336 49.82687872 -51 43 C-50.37358393 37.86338825 -48.62966783 34.1958729 -44.875 30.625 C-36.41217231 24.17968186 -25.79527215 23.83030738 -15.5625 23.9375 C-14.73556641 23.94201172 -13.90863281 23.94652344 -13.05664062 23.95117188 C-11.03772854 23.96284189 -9.01885426 23.98077282 -7 24 C-8.30343711 18.27328018 -8.30343711 18.27328018 -12 14 C-15.44356982 12.27821509 -19.2271572 12.62141024 -23 13 C-25.96912882 14.38980498 -27.69657028 15.69657028 -30 18 C-31.87939453 18.22705078 -31.87939453 18.22705078 -34.1328125 18.1953125 C-34.93847656 18.18886719 -35.74414062 18.18242188 -36.57421875 18.17578125 C-37.41597656 18.15902344 -38.25773438 18.14226562 -39.125 18.125 C-40.39923828 18.11146484 -40.39923828 18.11146484 -41.69921875 18.09765625 C-43.79959884 18.07405647 -45.89983444 18.03818483 -48 18 C-47.47124865 11.13347561 -46.2103735 8.01714709 -41.39453125 2.984375 C-37.64404761 -0.12369301 -33.64495349 -1.67287043 -29 -3 C-28.08347656 -3.28423828 -28.08347656 -3.28423828 -27.1484375 -3.57421875 C-17.99326769 -5.38860695 -8.10205119 -4.80470477 0 0 Z M-32 41 C-32.26293056 45.03160191 -32.29404844 46.55892734 -30 50 C-24.17499692 52.28839407 -20.18073402 52.17810342 -14.27734375 50.11328125 C-10.57359852 48.30270253 -9.10008283 46.57014081 -7 43 C-6.84340502 39.86698336 -6.84340502 39.86698336 -7 37 C-10.06303578 36.91884007 -13.12390815 36.85942591 -16.1875 36.8125 C-17.05181641 36.78736328 -17.91613281 36.76222656 -18.80664062 36.73632812 C-24.20155567 36.67431761 -27.98377304 36.98377304 -32 41 Z " fill="#FDFDFD" transform="translate(577,75)"/>
<path d="M0 0 C7.25444523 5.67739192 10.47981974 11.31413517 12.875 20.25 C12.875 25.53 12.875 30.81 12.875 36.25 C-2.305 36.58 -17.485 36.91 -33.125 37.25 C-30.42237341 44.23739668 -30.42237341 44.23739668 -25.125 48.25 C-21.95055099 48.84196854 -21.95055099 48.84196854 -18.625 48.6875 C-17.5215625 48.68621094 -16.418125 48.68492188 -15.28125 48.68359375 C-11.83029002 48.20951385 -9.90724662 47.31148346 -7.125 45.25 C-6.63 44.26 -6.63 44.26 -6.125 43.25 C-0.185 43.25 5.755 43.25 11.875 43.25 C10.84226292 50.47915954 9.86648959 53.30852534 4.875 58.25 C-2.94448888 63.93913994 -8.91395991 65.4416885 -18.375 65.5 C-19.19613281 65.520625 -20.01726562 65.54125 -20.86328125 65.5625 C-29.67389417 65.61835175 -37.29336565 62.98712805 -43.72265625 56.68359375 C-52.30233782 47.26070024 -52.69242841 36.47833412 -52.25683594 24.27636719 C-51.6772586 15.36804889 -47.75667938 8.47892466 -41.23828125 2.52734375 C-29.01908395 -7.24321284 -13.41700307 -7.51352172 0 0 Z M-31 14.5625 C-32.64254222 17.02631334 -32.87167775 19.33679411 -33.125 22.25 C-32.05470871 23.54545448 -32.05470871 23.54545448 -29.53295898 23.36352539 C-28.40704346 23.35828857 -27.28112793 23.35305176 -26.12109375 23.34765625 C-24.29868164 23.34282227 -24.29868164 23.34282227 -22.43945312 23.33789062 C-21.16005859 23.32951172 -19.88066406 23.32113281 -18.5625 23.3125 C-16.63760742 23.30573242 -16.63760742 23.30573242 -14.67382812 23.29882812 C-11.49083978 23.28699545 -8.30794238 23.27051068 -5.125 23.25 C-5.80368955 18.38493825 -6.53185581 15.74603219 -10.125 12.25 C-17.67656038 8.80254852 -24.21157445 9.81060212 -31 14.5625 Z " fill="#FDFDFD" transform="translate(470.125,75.75)"/>
<path d="M0 0 C1.39712274 1.95597184 2.71927629 3.9659094 4 6 C9.70254089 11.82561731 14.5979748 14.12714999 22.8125 14.625 C24.55466797 14.73714844 24.55466797 14.73714844 26.33203125 14.8515625 C27.21246094 14.90054688 28.09289062 14.94953125 29 15 C28.95552734 16.38832031 28.95552734 16.38832031 28.91015625 17.8046875 C29.03187075 22.1334902 30.12380419 23.7730486 33 27 C38.92225145 30.79940776 45.07989589 31.71106037 52 32 C51.67 32.99 51.34 33.98 51 35 C50.90899982 36.69091033 50.86843672 38.384792 50.859375 40.078125 C50.83037109 41.57279297 50.83037109 41.57279297 50.80078125 43.09765625 C50.76718186 45.18340279 50.74871767 47.26945325 50.74609375 49.35546875 C50.53685178 57.91236414 48.38675763 61.44390449 42.5 67.625 C41.675 68.40875 40.85 69.1925 40 70 C39.175 70.94875 38.35 71.8975 37.5 72.875 C35 75 35 75 32.71875 74.87109375 C29.36546122 73.79669232 26.90022671 72.18140586 24 70.1875 C22.4840625 69.15689453 22.4840625 69.15689453 20.9375 68.10546875 C19.968125 67.41066406 18.99875 66.71585937 18 66 C16.700625 65.09701172 16.700625 65.09701172 15.375 64.17578125 C12.97088135 61.97332387 11.85036507 59.88808723 10.33984375 57.04296875 C7.31633003 52.43277145 2.96283377 48.79299804 -1 45 C-15.84979727 30.78662262 -15.84979727 30.78662262 -16.1875 20 C-16.15811937 16.85039594 -15.78768134 14.68152201 -14 12 C-15.65 12.33 -17.3 12.66 -19 13 C-18.91863476 10.23358182 -18.4328274 8.48902323 -16.5859375 6.40234375 C-11.96843031 2.26286043 -6.45470071 -1.35888436 0 0 Z " fill="#87B4E3" transform="translate(69,90)"/>
<path d="M0 0 C5.94 0 11.88 0 18 0 C18.04898437 2.78308594 18.09796875 5.56617187 18.1484375 8.43359375 C18.20257791 11.15426622 18.25983388 13.87485673 18.31738281 16.59545898 C18.35546632 18.47397659 18.39035366 20.352562 18.421875 22.23120117 C18.46797713 24.94474386 18.52589285 27.65782792 18.5859375 30.37109375 C18.59748871 31.19959335 18.60903992 32.02809296 18.62094116 32.88169861 C18.75947054 38.46026175 19.59910964 43.60026966 21 49 C21.66 49 22.32 49 23 49 C23 49.66 23 50.32 23 51 C29.18468197 52.01448341 33.54873709 52.67960247 39 49 C43.21385772 44.78614228 42.21107083 37.95193599 42.31640625 32.32421875 C42.33718735 31.3990596 42.35796844 30.47390045 42.37937927 29.52070618 C42.4445656 26.57637693 42.50361558 23.63196135 42.5625 20.6875 C42.60571464 18.68684017 42.64932986 16.68618894 42.69335938 14.68554688 C42.8009662 9.79045164 42.90026939 4.89528736 43 0 C49.27 0 55.54 0 62 0 C62.02305579 5.67428682 62.0429393 11.34840861 62.05493164 17.02270508 C62.05993539 18.94979404 62.06674045 20.87687925 62.07543945 22.80395508 C62.08767948 25.58676076 62.09326804 28.36951589 62.09765625 31.15234375 C62.10281754 32.00271713 62.10797882 32.85309052 62.11329651 33.72923279 C62.11420118 43.55286598 61.90187723 53.15850196 55.30859375 61.015625 C48.673607 67.39593549 40.9410107 69.02252616 32 70 C21.82694358 69.73345704 13.81857634 67.66960993 6 61 C-0.20500979 53.73559829 -0.28803396 45.92287478 -0.1953125 36.81640625 C-0.1924826 35.76090073 -0.18965271 34.7053952 -0.18673706 33.61790466 C-0.17559415 30.26598496 -0.15050024 26.91433816 -0.125 23.5625 C-0.1149626 21.28190492 -0.10583808 19.00130562 -0.09765625 16.72070312 C-0.07567407 11.14703119 -0.04118473 5.57356178 0 0 Z " fill="#FDFDFD" transform="translate(345,72)"/>
<path d="M0 0 C3.52854452 1.30069222 6.72654626 2.94301412 10.01025391 4.76660156 C19.77237896 10.06441556 29.65903909 12.27664974 40.47509766 14.47070312 C53.34016396 17.16761511 66.74734937 21.16849117 74.6953125 32.39453125 C78.24852415 38.11915001 81 43.13655256 81 50 C74.2769975 52.689201 68.92076448 52.69882859 62.1796875 50.5 C55.08510022 48.51554545 48.12621718 48.58585768 40.8125 48.6875 C39.42911901 48.69615238 38.04573681 48.70461479 36.66235352 48.71289062 C28.34408347 48.79362369 20.20728255 49.22037607 11.99609375 50.5625 C8.95419872 51.00668806 6.06947706 51.07385208 3 51 C3.28288477 47.60538272 3.74132059 46.25867941 6.1875 43.8125 C13.00470145 39.4191924 19.51889078 39.75470622 27.375 39.875 C29.05142578 39.88853516 29.05142578 39.88853516 30.76171875 39.90234375 C33.50803462 39.92581654 36.25390472 39.95865272 39 40 C32.27595107 37.70330839 25.88295266 37.62726053 18.82617188 37.52148438 C12.04414493 37.32013528 6.20130914 36.61570381 0.7578125 32.16796875 C-2.45940432 28.26574644 -4.86255621 25.05530575 -6 20 C-5.33613281 20.27714844 -4.67226563 20.55429687 -3.98828125 20.83984375 C-3.10527344 21.20207031 -2.22226562 21.56429687 -1.3125 21.9375 C-0.44238281 22.29714844 0.42773438 22.65679687 1.32421875 23.02734375 C3.88179265 23.9570312 6.3221323 24.54162625 9 25 C9 24.34 9 23.68 9 23 C8.401875 22.773125 7.80375 22.54625 7.1875 22.3125 C3.09405797 19.85643478 1.4976442 15.37870551 0 11 C-0.1953125 8.10546875 -0.1953125 8.10546875 -0.125 5.1875 C-0.10695313 4.21167969 -0.08890625 3.23585938 -0.0703125 2.23046875 C-0.04710937 1.49441406 -0.02390625 0.75835938 0 0 Z " fill="#3973BA" transform="translate(43,24)"/>
<path d="M0 0 C0.74886475 0.00523682 1.49772949 0.01047363 2.26928711 0.01586914 C3.07817383 0.0190918 3.88706055 0.02231445 4.72045898 0.02563477 C5.5705957 0.03401367 6.42073242 0.04239258 7.29663086 0.05102539 C8.15063477 0.05553711 9.00463867 0.06004883 9.88452148 0.06469727 C12.00108749 0.07652166 14.11761771 0.0944577 16.23413086 0.11352539 C16.30382825 10.12798087 16.35704205 20.14237806 16.38956738 30.15702724 C16.4051827 34.80789737 16.42634498 39.45860079 16.46044922 44.109375 C16.49319073 48.60274442 16.51101492 53.09595411 16.51876259 57.58943367 C16.52427965 59.29853897 16.53505283 61.00763612 16.55132103 62.7166729 C16.73334374 82.64230894 16.73334374 82.64230894 10.98413086 89.98852539 C4.9298877 94.66680419 -0.20892949 95.56854442 -7.64086914 95.36352539 C-8.41172852 95.35836914 -9.18258789 95.35321289 -9.97680664 95.34790039 C-15.61084682 95.26854771 -15.61084682 95.26854771 -16.76586914 94.11352539 C-16.86542018 92.17813604 -16.89555582 90.2389677 -16.89086914 88.30102539 C-16.89344727 87.24270508 -16.89602539 86.18438477 -16.89868164 85.09399414 C-16.78650575 82.57663522 -16.49678124 80.50929284 -15.76586914 78.11352539 C-14.9834082 77.99235352 -14.20094727 77.87118164 -13.39477539 77.74633789 C-12.38286133 77.57875977 -11.37094727 77.41118164 -10.32836914 77.23852539 C-9.3190332 77.07610352 -8.30969727 76.91368164 -7.26977539 76.74633789 C-6.0303418 76.4330957 -6.0303418 76.4330957 -4.76586914 76.11352539 C-3.28953073 73.16084856 -3.60843863 70.49691458 -3.57641602 67.20117188 C-3.56812271 66.49047546 -3.55982941 65.77977905 -3.55128479 65.04754639 C-3.53387464 63.50282973 -3.51871045 61.95808652 -3.50550842 60.41332817 C-3.48451287 57.97226367 -3.45748909 55.53133308 -3.42883301 53.09034729 C-3.35893451 47.02884548 -3.29952535 40.96724876 -3.23980713 34.90563965 C-3.1889593 29.78363934 -3.13416499 24.66171157 -3.07398987 19.53981209 C-3.04732686 17.12840527 -3.02656761 14.71699201 -3.00598145 12.30552673 C-2.98938589 10.83584263 -2.97251471 9.36616161 -2.95532227 7.89648438 C-2.94279419 6.60790024 -2.93026611 5.3193161 -2.9173584 3.99168396 C-2.71645161 0.17463708 -2.71645161 0.17463708 0 0 Z " fill="#FDFDFD" transform="translate(497.765869140625,71.886474609375)"/>
<path d="M0 0 C0.33 1.65 0.66 3.3 1 5 C0.01 5.495 0.01 5.495 -1 6 C-0.92107019 8.40021355 -0.92107019 8.40021355 0 11 C2.3692502 12.85316941 2.3692502 12.85316941 5.44140625 14.26953125 C6.57497559 14.84429199 7.70854492 15.41905273 8.87646484 16.01123047 C10.10501276 16.61192057 11.33369378 17.21233849 12.5625 17.8125 C13.80764361 18.43729317 15.0519464 19.06376477 16.29541016 19.69189453 C19.85305547 21.48312961 23.42458784 23.24449305 27 25 C32.93109242 27.91993933 32.93109242 27.91993933 35.875 29.375 C36.49391113 29.68083008 37.11282227 29.98666016 37.75048828 30.30175781 C46.86094691 34.86313786 55.40326332 40.16351315 63.1953125 46.75 C65.04514661 48.28469751 65.04514661 48.28469751 68 48 C69.02019573 47.0206121 70.02149805 46.02104551 71 45 C71.66 45 72.32 45 73 45 C73 44.34 73 43.68 73 43 C74.5390625 41.51953125 74.5390625 41.51953125 76.625 39.8125 C82.11423993 35.12964399 87.67426106 29.97721682 90 23 C90.23392561 18.65418204 90.17414345 14.34713647 90 10 C93.8854175 11.26013541 95.98366954 12.38875864 98 16 C99.00521358 21.40641896 98.53022988 26.55315216 95.3984375 31.1953125 C94.93695313 31.79085937 94.47546875 32.38640625 94 33 C93.39414063 33.80179688 92.78828125 34.60359375 92.1640625 35.4296875 C88.27044953 40.21838391 88.27044953 40.21838391 86 42 C82.7421875 42.25390625 82.7421875 42.25390625 80 42 C79.608125 42.928125 79.21625 43.85625 78.8125 44.8125 C76.84883187 48.26584741 75.43519864 49.19200072 72 51 C71.505 51.99 71.505 51.99 71 53 C73.31 52.01 75.62 51.02 78 50 C78 56.27 78 62.54 78 69 C68.82588708 72.22606169 61.71305256 73.42694737 52 73 C52.33 66.4 52.66 59.8 53 53 C54.98 52.67 56.96 52.34 59 52 C57.88625 51.443125 56.7725 50.88625 55.625 50.3125 C52.84702448 48.74673198 52.09463724 48.18104516 50.5625 45.25 C50.376875 44.5075 50.19125 43.765 50 43 C47.52733235 43.34444881 47.52733235 43.34444881 45 44 C44.505 44.99 44.505 44.99 44 46 C38.76750036 44.95350007 34.19746491 43.28639229 29.3125 41.125 C26.87979775 40.0714523 24.44098491 39.03444982 22 38 C21.00355469 37.5771875 20.00710937 37.154375 18.98046875 36.71875 C8.59766537 32.90854693 -2.10671893 33.61865449 -13 34 C-13.1875 27.3046875 -13.1875 27.3046875 -11.5 24.5625 C-11.005 24.046875 -10.51 23.53125 -10 23 C-9.1646875 23.2165625 -9.1646875 23.2165625 -8.3125 23.4375 C-5.88612396 24.02769958 -3.44961731 24.51657635 -1 25 C-1.49371094 24.44570312 -1.98742188 23.89140625 -2.49609375 23.3203125 C-3.13675781 22.59585938 -3.77742188 21.87140625 -4.4375 21.125 C-5.07558594 20.40570313 -5.71367187 19.68640625 -6.37109375 18.9453125 C-8.48391267 16.42208991 -8.97199691 15.1750193 -9.5 11.875 C-8.91388337 7.33259613 -5.37785905 0 0 0 Z " fill="#3A72B8" transform="translate(36,123)"/>
<path d="M0 0 C0.69802734 0.00386719 1.39605469 0.00773437 2.11523438 0.01171875 C2.80939453 0.00785156 3.50355469 0.00398438 4.21875 0 C9.42445449 0.01007881 9.42445449 0.01007881 11.67773438 1.13671875 C11.67773438 31.49671875 11.67773438 61.85671875 11.67773438 93.13671875 C6.06773437 93.13671875 0.45773437 93.13671875 -5.32226562 93.13671875 C-7.16461489 91.29436949 -6.44876391 88.70026293 -6.45779419 86.24842834 C-6.45475784 84.97980202 -6.45475784 84.97980202 -6.45166016 83.68554688 C-6.45341248 82.79943222 -6.45516479 81.91331757 -6.45697021 81.00035095 C-6.46139002 78.05620393 -6.45845029 75.11211644 -6.45507812 72.16796875 C-6.45575113 70.13155099 -6.45672112 68.09513331 -6.45797729 66.05871582 C-6.45945444 61.78474159 -6.45729917 57.51078822 -6.45263672 53.23681641 C-6.44693942 47.74513336 -6.45021834 42.25349918 -6.45620918 36.76181793 C-6.45981434 32.55494821 -6.45867642 28.34809016 -6.45608139 24.14122009 C-6.455412 22.11571751 -6.45624098 20.09021389 -6.45856094 18.06471252 C-6.46108673 15.23907645 -6.45724793 12.41352068 -6.45166016 9.58789062 C-6.45368439 8.74213974 -6.45570862 7.89638885 -6.45779419 7.02500916 C-6.43196653 0.01247714 -6.43196653 0.01247714 0 0 Z " fill="#FEFEFE" transform="translate(319.322265625,47.86328125)"/>
<path d="M0 0 C2.55766559 2.30413606 4.02478358 4.61688758 5.5625 7.6875 C5.97628906 8.49574219 6.39007813 9.30398437 6.81640625 10.13671875 C13.16033022 25.48357113 12.42359005 47.95406003 6.56542969 63.38208008 C0.56700605 77.71649697 0.56700605 77.71649697 -4 80 C-4.39832031 79.44570312 -4.79664063 78.89140625 -5.20703125 78.3203125 C-5.73683594 77.59585938 -6.26664063 76.87140625 -6.8125 76.125 C-7.59560547 75.04605469 -7.59560547 75.04605469 -8.39453125 73.9453125 C-10.03272777 71.76971345 -10.03272777 71.76971345 -13 70 C-12.47731534 67.23723823 -11.89130413 64.6739124 -11 62 C-10.34272512 56.41316355 -11.49332206 53.29377478 -14.56640625 48.79296875 C-17.23714662 45.45272398 -20.47723587 43.34850942 -24 41 C-24.3125 38.5 -24.3125 38.5 -24 36 C-21.72305284 33.72305284 -19.93161848 33.07052613 -16.9375 31.9375 C-13.71511711 30.87929711 -13.71511711 30.87929711 -11 29 C-5.97446468 29.13498339 -1.61808233 30.02082186 3 32 C4.32 32 5.64 32 7 32 C6.52518512 27.14554935 5.30316512 24.54089332 2.1875 20.8125 C1.50042969 19.97332031 0.81335938 19.13414063 0.10546875 18.26953125 C-1.80929451 16.20556566 -3.68927823 14.59413839 -6 13 C-5.34215037 9.70319035 -4.10579427 7.15882078 -2.4375 4.25 C-1.98246094 3.45078125 -1.52742188 2.6515625 -1.05859375 1.828125 C-0.70925781 1.22484375 -0.35992187 0.6215625 0 0 Z " fill="#FAFAFA" transform="translate(150,85)"/>
<path d="M0 0 C1.18879761 0.3252063 1.18879761 0.3252063 2.40161133 0.65698242 C12.78706421 3.53799177 23.08500384 6.73514992 33.375 9.9375 C33.43558594 11.08089844 33.49617188 12.22429687 33.55859375 13.40234375 C33.64298428 14.89324305 33.72763302 16.38412775 33.8125 17.875 C33.85181641 18.62974609 33.89113281 19.38449219 33.93164062 20.16210938 C33.81538024 23.85694187 33.81538024 23.85694187 35.375 26.9375 C35.41580783 28.93708364 35.41754356 30.93795254 35.375 32.9375 C16.41321368 32.54908352 -0.65138865 24.45276287 -13.9375 11.0625 C-21.625 2.98650459 -21.625 2.98650459 -21.625 -1.0625 C-14.217232 -3.1440474 -7.27299866 -2.07291147 0 0 Z " fill="#3A73B9" transform="translate(48.625,163.0625)"/>
<path d="M0 0 C0.33 3.3 0.66 6.6 1 10 C-0.52625 10.391875 -2.0525 10.78375 -3.625 11.1875 C-8.55897714 12.67607951 -11.44646659 14.26878992 -15 18 C-16.39819512 20.6514482 -16.39819512 20.6514482 -17 23 C-15.35 22.67 -13.7 22.34 -12 22 C-12.165 22.495 -12.33 22.99 -12.5 23.5 C-13.81256499 30.06282494 -13.37206039 36.13413288 -10 42 C-4.81998344 48.73286268 1.5070544 54.59954763 7.56982422 60.53393555 C12.98824709 65.86279092 12.98824709 65.86279092 15 69 C15 69.66 15 70.32 15 71 C10.8189444 69.49450797 7.25957473 67.42101826 3.5 65.0625 C2.3965625 64.37285156 1.293125 63.68320313 0.15625 62.97265625 C-0.8853125 62.32167969 -1.926875 61.67070312 -3 61 C-3.9590625 60.46246094 -4.918125 59.92492187 -5.90625 59.37109375 C-6.5971875 58.91863281 -7.288125 58.46617187 -8 58 C-8 57.34 -8 56.68 -8 56 C-9.0209375 55.7215625 -9.0209375 55.7215625 -10.0625 55.4375 C-17.37803263 51.8575585 -21.50881108 45.47925002 -24.90234375 38.2578125 C-27.61032442 30.22060297 -26.49440835 21.9509266 -24 14 C-25.98 14.99 -25.98 14.99 -28 16 C-28.33313345 10.55882032 -28.13239568 6.56434799 -25 2 C-17.33829201 -1.13685871 -8.10704986 -0.21303197 0 0 Z " fill="#3B74B8" transform="translate(67,80)"/>
<path d="M0 0 C0.33 0.66 0.66 1.32 1 2 C0.36328125 3.8125 0.36328125 3.8125 -0.6875 6 C-6.28991447 18.09348778 -10.24835168 29.59992472 -11 43 C-10.01 43 -9.02 43 -8 43 C-7.51005066 46.12342704 -7.30719122 48.89810615 -8 52 C-9.85394512 53.65530815 -11.76423567 54.63253357 -13.95703125 55.79296875 C-17.34691802 57.79578904 -18.93891456 60.32365103 -20 64 C-20.37024259 67.64071881 -20.56216796 71.23179629 -20.62890625 74.890625 C-21 78 -21 78 -22.52734375 79.921875 C-23.01332031 80.27765625 -23.49929687 80.6334375 -24 81 C-26.3787581 75.3116654 -27.70553358 70.18379478 -28 64 C-28.06445312 62.74960938 -28.12890625 61.49921875 -28.1953125 60.2109375 C-28.83847211 41.81657261 -24.14581763 24.27443881 -11.4375 10.4375 C-7.82545374 6.65769543 -4.05070495 3.28933897 0 0 Z " fill="#F7F7F7" transform="translate(42,65)"/>
<path d="M0 0 C7.94032011 2.73385875 14.63586098 7.06680561 20.8125 12.6875 C21.57663208 13.3822644 21.57663208 13.3822644 22.35620117 14.09106445 C25.01110586 16.64232283 26.29778318 18.41569896 27 22 C26.28094482 21.78923828 25.56188965 21.57847656 24.82104492 21.36132812 C16.13413097 18.98000849 8.05205353 18.54872877 -0.90820312 18.47265625 C-7.47001254 18.33502422 -12.92110355 17.52780053 -19 15 C-19 10.63363169 -16.3420186 8.75163742 -13.4375 5.8125 C-12.66696289 4.97428711 -12.66696289 4.97428711 -11.88085938 4.11914062 C-8.05122293 0.22290181 -5.64493775 -0.86555712 0 0 Z " fill="#2C3F55" transform="translate(125,91)"/>
<path d="M0 0 C4.8620669 1.80076552 7.48936566 5.77001598 10.3125 9.9375 C12.39055144 16.17165431 10.41669747 21.2603435 8 27 C8.99 27.33 9.98 27.66 11 28 C10.01 28.495 10.01 28.495 9 29 C7.86649466 31.01669827 7.86649466 31.01669827 7 33 C5.68 32.34 4.36 31.68 3 31 C2.67 31.99 2.34 32.98 2 34 C1.34 34 0.68 34 0 34 C-0.33 34.99 -0.66 35.98 -1 37 C-5.33333333 40 -5.33333333 40 -8 40 C-7.67 46.27 -7.34 52.54 -7 59 C-4.36 57.68 -1.72 56.36 1 55 C-1 59 -1 59 -2.75 60.25 C-5.57753638 61.19251213 -8.03993304 61.1345485 -11 61 C-11.33 61.99 -11.66 62.98 -12 64 C-14.97 64.495 -14.97 64.495 -18 65 C-16.515 64.505 -16.515 64.505 -15 64 C-15.33 58.06 -15.66 52.12 -16 46 C-17.98 46.66 -19.96 47.32 -22 48 C-21.25 46.0625 -21.25 46.0625 -20 44 C-17.875 43.25 -17.875 43.25 -16 43 C-15.87625 42.21625 -15.7525 41.4325 -15.625 40.625 C-15 38 -15 38 -13 36 C-12.07832031 36.07863281 -11.15664062 36.15726563 -10.20703125 36.23828125 C-6.77595036 36.31696001 -6.77595036 36.31696001 -4.26171875 33.48046875 C-3.38508994 32.39757434 -2.52734123 31.2991677 -1.6875 30.1875 C-1.24599609 29.64029297 -0.80449219 29.09308594 -0.34960938 28.52929688 C3.61722741 23.5175965 4.40112576 19.69900459 4.35546875 13.453125 C4.15282658 10.69085365 4.15282658 10.69085365 1.6875 7.875 C-0.8639082 5.7139092 -0.8639082 5.7139092 -4 6 C-3.6875 4.125 -3.6875 4.125 -3 2 C-2.01 1.34 -1.02 0.68 0 0 Z " fill="#070810" transform="translate(129,128)"/>
<path d="M0 0 C2.40346513 1.86936177 3.8552475 3.03390302 5.25 5.75 C5.6585132 10.03938857 5.73025674 12.61254983 4.0625 16.5625 C1.86414247 19.21569012 0.4836518 20.48465799 -2.75 21.75 C-7.75680433 22.05951154 -10.85378464 21.49684614 -14.75 18.25 C-15.41 17.425 -16.07 16.6 -16.75 15.75 C-17.08 15.42 -17.41 15.09 -17.75 14.75 C-18.30595495 10.97744858 -18.56968811 7.2849372 -16.73828125 3.85546875 C-12.29662548 -1.62657486 -6.49594539 -2.95270245 0 0 Z " fill="#FCFCFC" transform="translate(510.75,44.25)"/>
<path d="M0 0 C4.33354515 0.1399224 8.66677547 0.28800152 13 0.4375 C14.22074219 0.47681641 15.44148438 0.51613281 16.69921875 0.55664062 C22.85944564 0.77308103 28.90129953 1.09281831 35 2 C35.66 3.98 36.32 5.96 37 8 C36.34 8.33 35.68 8.66 35 9 C35 9.66 35 10.32 35 11 C35.85464844 11.04898438 36.70929688 11.09796875 37.58984375 11.1484375 C38.69457031 11.22320312 39.79929688 11.29796875 40.9375 11.375 C42.03964844 11.44460937 43.14179687 11.51421875 44.27734375 11.5859375 C45.62505859 11.79089844 45.62505859 11.79089844 47 12 C47.495 12.99 47.495 12.99 48 14 C47.23558594 14.01981934 46.47117188 14.03963867 45.68359375 14.06005859 C26.32932712 14.53270169 26.32932712 14.53270169 7.1015625 16.59765625 C4.02974567 16.9961413 1.0936178 17.07009708 -2 17 C-1.71711523 13.60538272 -1.25867941 12.25867941 1.1875 9.8125 C8.00470145 5.4191924 14.51889078 5.75470622 22.375 5.875 C24.05142578 5.88853516 24.05142578 5.88853516 25.76171875 5.90234375 C28.50803462 5.92581654 31.25390472 5.95865272 34 6 C27.2279264 3.6898566 20.7543946 3.60285523 13.65039062 3.43359375 C8.73269334 3.27096681 4.61726081 2.90529232 0 1 C0 0.67 0 0.34 0 0 Z " fill="#3C689D" transform="translate(48,58)"/>
<path d="M0 0 C-4.94863848 11.32188501 -19.72244197 18.07800953 -30.62890625 22.45703125 C-43.72587348 26.52557321 -65.31287073 28.34356463 -78 22 C-77.505 20.515 -77.505 20.515 -77 19 C-75.9378125 19.17015625 -74.875625 19.3403125 -73.78125 19.515625 C-68.01221134 20.23041801 -62.29614649 19.98199744 -56.5 19.75 C-55.35611816 19.70625244 -54.21223633 19.66250488 -53.03369141 19.61743164 C-44.12892126 19.20502265 -35.66772275 18.08182465 -27 16 C-26.67 14.68 -26.34 13.36 -26 12 C-25.13375 12.0825 -24.2675 12.165 -23.375 12.25 C-18.19307204 11.86615348 -15.39715753 9.16208023 -11.5390625 5.953125 C-10.65992188 5.22609375 -9.78078125 4.4990625 -8.875 3.75 C-7.63363281 2.69039062 -7.63363281 2.69039062 -6.3671875 1.609375 C-4 0 -4 0 0 0 Z " fill="#010102" transform="translate(144,176)"/>
<path d="M0 0 C4.56751282 1.1745033 6.53553217 3.40502931 9.0625 7.1796875 C10.28179285 9.54714779 10.39636369 11.38399963 10 14 C9.34 14 8.68 14 8 14 C7.66742188 14.86431641 7.66742188 14.86431641 7.328125 15.74609375 C5.59568166 18.686152 3.52722689 20.0934006 0.75 22.0625 C-0.18328125 22.73410156 -1.1165625 23.40570313 -2.078125 24.09765625 C-5 26 -5 26 -11 29 C-11 22.4 -11 15.8 -11 9 C-8.69 7.68 -6.38 6.36 -4 5 C-1.6090093 2.41139607 -1.6090093 2.41139607 0 0 Z " fill="#3775BC" transform="translate(132,159)"/>
<path d="M0 0 C3.8854175 1.26013541 5.98366954 2.38875864 8 6 C9.00521358 11.40641896 8.53022988 16.55315216 5.3984375 21.1953125 C4.93695313 21.79085937 4.47546875 22.38640625 4 23 C3.39414063 23.80179688 2.78828125 24.60359375 2.1640625 25.4296875 C-1.72955047 30.21838391 -1.72955047 30.21838391 -4 32 C-7.2578125 32.25390625 -7.2578125 32.25390625 -10 32 C-10.5878125 33.3921875 -10.5878125 33.3921875 -11.1875 34.8125 C-13.15635788 38.2749742 -14.53092371 39.22098652 -18 41 C-18.66 41.66 -19.32 42.32 -20 43 C-20 42.01 -20 41.02 -20 40 C-20.99 39.67 -21.98 39.34 -23 39 C-21.71034824 37.62437146 -20.37310707 36.29233607 -19 35 C-18.34 35 -17.68 35 -17 35 C-17 34.34 -17 33.68 -17 33 C-15.4609375 31.51953125 -15.4609375 31.51953125 -13.375 29.8125 C-7.88576007 25.12964399 -2.32573894 19.97721682 0 13 C0.23392561 8.65418204 0.17414345 4.34713647 0 0 Z " fill="#3D6FAE" transform="translate(126,133)"/>
<path d="M0 0 C0.33 1.65 0.66 3.3 1 5 C0.01 5.495 0.01 5.495 -1 6 C-0.85190969 8.41372911 -0.85190969 8.41372911 0 11 C2.04564138 12.67220162 2.04564138 12.67220162 4.5625 13.8125 C5.38878906 14.23144531 6.21507813 14.65039062 7.06640625 15.08203125 C7.70449219 15.38496094 8.34257813 15.68789062 9 16 C5.71023192 17.09658936 4.28696233 16.79953138 1 16 C1 17.65 1 19.3 1 21 C1.99 21.33 2.98 21.66 4 22 C3.38722388 24.96175123 2.74627478 26.38058783 1 29 C0.4225 28.835 -0.155 28.67 -0.75 28.5 C-3.26664369 27.85537969 -3.26664369 27.85537969 -7 28 C-7 27.34 -7 26.68 -7 26 C-8.32 26 -9.64 26 -11 26 C-11 27.98 -11 29.96 -11 32 C-4.73 32 1.54 32 8 32 C8 32.33 8 32.66 8 33 C-2.395 33.495 -2.395 33.495 -13 34 C-13 26.125 -13 26.125 -10 23 C-9.1646875 23.2165625 -9.1646875 23.2165625 -8.3125 23.4375 C-5.88612396 24.02769958 -3.44961731 24.51657635 -1 25 C-1.49371094 24.44570312 -1.98742188 23.89140625 -2.49609375 23.3203125 C-3.13675781 22.59585938 -3.77742188 21.87140625 -4.4375 21.125 C-5.07558594 20.40570313 -5.71367187 19.68640625 -6.37109375 18.9453125 C-8.48391267 16.42208991 -8.97199691 15.1750193 -9.5 11.875 C-8.91388337 7.33259613 -5.37785905 0 0 0 Z " fill="#3B72B9" transform="translate(36,123)"/>
<path d="M0 0 C1.85625 0.061875 1.85625 0.061875 3.75 0.125 C3.75 3.095 3.75 6.065 3.75 9.125 C3.07453125 9.37894531 2.3990625 9.63289063 1.703125 9.89453125 C0.81109375 10.23871094 -0.0809375 10.58289063 -1 10.9375 C-2.32257812 11.44216797 -2.32257812 11.44216797 -3.671875 11.95703125 C-6.18039808 13.09346822 -8.12279005 14.39042927 -10.25 16.125 C-10.58 15.465 -10.91 14.805 -11.25 14.125 C-14.27934491 13.46727572 -14.27934491 13.46727572 -17.25 13.125 C-17.58 11.475 -17.91 9.825 -18.25 8.125 C-15.94 8.455 -13.63 8.785 -11.25 9.125 C-12.24 8.795 -13.23 8.465 -14.25 8.125 C-14.25 7.465 -14.25 6.805 -14.25 6.125 C-15.9 6.125 -17.55 6.125 -19.25 6.125 C-18.92 5.135 -18.59 4.145 -18.25 3.125 C-17.57453125 3.07601562 -16.8990625 3.02703125 -16.203125 2.9765625 C-15.31109375 2.90179688 -14.4190625 2.82703125 -13.5 2.75 C-12.61828125 2.68039063 -11.7365625 2.61078125 -10.828125 2.5390625 C-8.25978794 2.25868086 -8.25978794 2.25868086 -6.1875 1.09375 C-3.94337264 -0.02831368 -2.48818482 -0.08293949 0 0 Z " fill="#3A74BC" transform="translate(62.25,80.875)"/>
<path d="M0 0 C5.84316722 5.26396114 8.65701884 13.43046981 10 21 C10.1341759 23.69277144 10.0963962 26.30090632 10 29 C6.12487212 27.70829071 5.40141626 26.03126318 3.125 22.6875 C0.43103532 18.73106952 -2.13155228 15.83731096 -6 13 C-5.34215037 9.70319035 -4.10579427 7.15882078 -2.4375 4.25 C-1.98246094 3.45078125 -1.52742187 2.6515625 -1.05859375 1.828125 C-0.53458984 0.92320313 -0.53458984 0.92320313 0 0 Z " fill="#F4F4F3" transform="translate(150,85)"/>
<path d="M0 0 C2.31 0.66 4.62 1.32 7 2 C6 5 6 5 4 6 C4.165 6.61875 4.33 7.2375 4.5 7.875 C5.76753293 15.79708081 5.65128986 21.31377083 1 28 C-0.98 28 -2.96 28 -5 28 C-4.6803125 27.04738281 -4.360625 26.09476563 -4.03125 25.11328125 C-2.48060016 19.69283186 -2.5766117 14.18662288 -2.43359375 8.58789062 C-2.40394531 7.76869141 -2.37429687 6.94949219 -2.34375 6.10546875 C-2.32505859 5.36449951 -2.30636719 4.62353027 -2.28710938 3.86010742 C-2 2 -2 2 0 0 Z " fill="#020307" transform="translate(122,125)"/>
<path d="M0 0 C0.33 3.3 0.66 6.6 1 10 C0.34 10 -0.32 10 -1 10 C-1 7.03 -1 4.06 -1 1 C-2.6256807 1.30893932 -4.25052748 1.6222695 -5.875 1.9375 C-6.77992187 2.11152344 -7.68484375 2.28554687 -8.6171875 2.46484375 C-10.99956317 2.89963701 -10.99956317 2.89963701 -13 4 C-15.59248672 4.27175818 -18.18448511 4.44572568 -20.78515625 4.62109375 C-21.88150391 4.80865234 -21.88150391 4.80865234 -23 5 C-23.33 5.66 -23.66 6.32 -24 7 C-22.35 7 -20.7 7 -19 7 C-19 7.66 -19 8.32 -19 9 C-17.35 9 -15.7 9 -14 9 C-16.96687001 10.64826111 -19.65626525 11.44271087 -23 12 C-22.34 12.33 -21.68 12.66 -21 13 C-20.01 14.485 -20.01 14.485 -19 16 C-20.32 16.33 -21.64 16.66 -23 17 C-23.06058594 17.6290625 -23.12117188 18.258125 -23.18359375 18.90625 C-23.70995507 24.28323337 -24.30546457 29.64215527 -25 35 C-25.33 35 -25.66 35 -26 35 C-26.20177072 27.64657821 -26.21211746 21.05112439 -24 14 C-25.98 14.99 -25.98 14.99 -28 16 C-28.33313345 10.55882032 -28.13239568 6.56434799 -25 2 C-17.33829201 -1.13685871 -8.10704986 -0.21303197 0 0 Z " fill="#3E72B7" transform="translate(67,80)"/>
<path d="M0 0 C0.88945313 0.00322266 1.77890625 0.00644531 2.6953125 0.00976562 C4.07589844 0.02233398 4.07589844 0.02233398 5.484375 0.03515625 C6.42023438 0.03966797 7.35609375 0.04417969 8.3203125 0.04882812 C10.62506541 0.06058707 12.92968727 0.07702199 15.234375 0.09765625 C15.564375 1.74765625 15.894375 3.39765625 16.234375 5.09765625 C11.03264405 5.96575064 6.06458684 6.22280973 0.796875 6.16015625 C0.06533203 6.15564453 -0.66621094 6.15113281 -1.41992188 6.14648438 C-3.20185919 6.13483773 -4.98375363 6.11690816 -6.765625 6.09765625 C-6.765625 6.75765625 -6.765625 7.41765625 -6.765625 8.09765625 C-9.735625 8.09765625 -12.705625 8.09765625 -15.765625 8.09765625 C-15.765625 7.10765625 -15.765625 6.11765625 -15.765625 5.09765625 C-13.785625 4.76765625 -11.805625 4.43765625 -9.765625 4.09765625 C-9.435625 3.10765625 -9.105625 2.11765625 -8.765625 1.09765625 C-5.87384683 -0.018967 -3.07276197 -0.01969719 0 0 Z " fill="#3974BB" transform="translate(64.765625,64.90234375)"/>
<path d="M0 0 C2.97851562 0.24414062 2.97851562 0.24414062 5.95703125 0.48828125 C5.62703125 2.79828125 5.29703125 5.10828125 4.95703125 7.48828125 C4.29703125 7.48828125 3.63703125 7.48828125 2.95703125 7.48828125 C2.73015625 8.35453125 2.50328125 9.22078125 2.26953125 10.11328125 C0.64886706 14.28070346 -0.80120766 16.39387294 -4.04296875 19.48828125 C-7.35546875 19.86328125 -7.35546875 19.86328125 -10.04296875 19.48828125 C-11.04296875 16.48828125 -11.04296875 16.48828125 -9.93359375 13.96484375 C-9.3921875 13.02382812 -8.85078125 12.0828125 -8.29296875 11.11328125 C-7.49632813 9.70949219 -7.49632813 9.70949219 -6.68359375 8.27734375 C-6.1421875 7.35695313 -5.60078125 6.4365625 -5.04296875 5.48828125 C-4.56730469 4.55371094 -4.09164062 3.61914062 -3.6015625 2.65625 C-2.04296875 0.48828125 -2.04296875 0.48828125 0 0 Z " fill="#2C3E53" transform="translate(97.04296875,79.51171875)"/>
<path d="M0 0 C1.32 0 2.64 0 4 0 C4 0.66 4 1.32 4 2 C7.3 2.99 10.6 3.98 14 5 C14 4.34 14 3.68 14 3 C19.75764755 5.55614243 24.65677568 10.69017314 28 16 C28 16.66 28 17.32 28 18 C23.8189444 16.49450797 20.25957473 14.42101826 16.5 12.0625 C14.84484375 11.02802734 14.84484375 11.02802734 13.15625 9.97265625 C11.59390625 8.99619141 11.59390625 8.99619141 10 8 C9.0409375 7.46246094 8.081875 6.92492187 7.09375 6.37109375 C6.4028125 5.91863281 5.711875 5.46617187 5 5 C5 4.34 5 3.68 5 3 C2.525 2.01 2.525 2.01 0 1 C0 0.67 0 0.34 0 0 Z " fill="#3E6CA7" transform="translate(54,133)"/>
<path d="M0 0 C0.70382813 0.20496094 1.40765625 0.40992187 2.1328125 0.62109375 C10.09264126 2.79290081 17.76797967 3.6468512 26 4 C22.92295281 7.56289675 19.69911035 8.74158887 15.09765625 9.44140625 C7.0755912 9.7614629 7.0755912 9.7614629 3.88671875 7.50390625 C0 3.04206444 0 3.04206444 0 0 Z " fill="#2E3D51" transform="translate(103,109)"/>
<path d="M0 0 C4.56751282 1.1745033 6.53553217 3.40502931 9.0625 7.1796875 C10.28179285 9.54714779 10.39636369 11.38399963 10 14 C9.34 14 8.68 14 8 14 C7.76539063 14.59296875 7.53078125 15.1859375 7.2890625 15.796875 C5.70104575 18.51094 4.02397116 19.58493241 1.375 21.25 C0.55773437 21.77078125 -0.25953125 22.2915625 -1.1015625 22.828125 C-2.04128906 23.40820312 -2.04128906 23.40820312 -3 24 C-2.690625 23.401875 -2.38125 22.80375 -2.0625 22.1875 C-0.89790296 19.91043228 -0.89790296 19.91043228 0 17 C-0.66 16.01 -1.32 15.02 -2 14 C-1.625 11.3125 -1.625 11.3125 -1 9 C-0.01 9 0.98 9 2 9 C2.33 10.32 2.66 11.64 3 13 C5.51083114 11.74458443 5.87125446 10.49936512 7 8 C6.34 7.38125 5.68 6.7625 5 6.125 C3 4 3 4 3 2 C2.01 2 1.02 2 0 2 C0 1.34 0 0.68 0 0 Z " fill="#3E6FB3" transform="translate(132,159)"/>
<path d="M0 0 C2.31 0 4.62 0 7 0 C6.61471495 6.16456078 4.52913975 9.98627748 1 15 C-0.65 14.67 -2.3 14.34 -4 14 C-3.36843005 8.94744036 -1.86540627 4.70406799 0 0 Z " fill="#2E3E52" transform="translate(138,77)"/>
<path d="M0 0 C0 2.33333333 0 4.66666667 0 7 C-1.98 7.99 -1.98 7.99 -4 9 C-4 8.34 -4 7.68 -4 7 C-4.99 7 -5.98 7 -7 7 C-7.33 8.32 -7.66 9.64 -8 11 C-6.35 10.67 -4.7 10.34 -3 10 C-3 10.99 -3 11.98 -3 13 C-4.32 13.33 -5.64 13.66 -7 14 C-6.67 14.66 -6.34 15.32 -6 16 C-6.33 16.99 -6.66 17.98 -7 19 C-7.66 19 -8.32 19 -9 19 C-9 19.99 -9 20.98 -9 22 C-6.69 22 -4.38 22 -2 22 C-4.68841859 24.25245881 -6.64641875 25.88213958 -10 27 C-10 20.4 -10 13.8 -10 7 C-7.69 5.68 -5.38 4.36 -3 3 C-1.14140661 1.39827526 -1.14140661 1.39827526 0 0 Z " fill="#406EAA" transform="translate(131,161)"/>
<path d="M0 0 C0.33 1.65 0.66 3.3 1 5 C0.01 5.495 0.01 5.495 -1 6 C-0.85190969 8.41372911 -0.85190969 8.41372911 0 11 C2.04564138 12.67220162 2.04564138 12.67220162 4.5625 13.8125 C5.38878906 14.23144531 6.21507812 14.65039062 7.06640625 15.08203125 C7.70449219 15.38496094 8.34257813 15.68789062 9 16 C5.23375329 17.25541557 3.62811066 16.37061958 0 15 C0 14.34 0 13.68 0 13 C-0.99 13 -1.98 13 -3 13 C-3.33 10.69 -3.66 8.38 -4 6 C-4.66 6 -5.32 6 -6 6 C-7.33898897 11.11250333 -6.57838438 13.46204349 -4 18 C-4 18.66 -4 19.32 -4 20 C-3.34 20.33 -2.68 20.66 -2 21 C-2.99 21 -3.98 21 -5 21 C-7.62243982 17.92799907 -8.87958271 15.59113941 -9.6875 11.625 C-8.84828892 7.20006884 -5.20887452 0 0 0 Z " fill="#446CA8" transform="translate(36,123)"/>
<path d="M0 0 C7.85 -0.30192308 7.85 -0.30192308 11 2 C11.33 2.99 11.66 3.98 12 5 C11.34 5.66 10.68 6.32 10 7 C9.505 7.53625 9.01 8.0725 8.5 8.625 C7 10 7 10 5 10 C4.67 10.66 4.34 11.32 4 12 C2 11 2 11 1 8 C0.34 7.67 -0.32 7.34 -1 7 C-0.67 4.69 -0.34 2.38 0 0 Z " fill="#2A3F53" transform="translate(118,91)"/>
<path d="M0 0 C3.65866294 4.32387438 5 8.34923902 5 14 C-2.06627849 16.8265114 -7.93372151 16.8265114 -15 14 C-10.91556885 12.46833832 -7.20544343 13.36918348 -3 14 C-3 12.35 -3 10.7 -3 9 C-2.01 8.67 -1.02 8.34 0 8 C0 5.36 0 2.72 0 0 Z " fill="#3B67A1" transform="translate(119,60)"/>
<path d="M0 0 C4.95 1.32 9.9 2.64 15 4 C15.06058594 5.14339844 15.12117188 6.28679687 15.18359375 7.46484375 C15.26798428 8.95574305 15.35263302 10.44662775 15.4375 11.9375 C15.47681641 12.69224609 15.51613281 13.44699219 15.55664062 14.22460938 C15.44038024 17.91944187 15.44038024 17.91944187 17 21 C17.04080783 22.99958364 17.04254356 25.00045254 17 27 C15.06183265 26.8858134 13.12444901 26.75826577 11.1875 26.625 C10.10855469 26.55539063 9.02960938 26.48578125 7.91796875 26.4140625 C5 26 5 26 2 24 C5.96 24 9.92 24 14 24 C13.67 18.06 13.34 12.12 13 6 C8.545 5.01 8.545 5.01 4 4 C4 3.34 4 2.68 4 2 C2.68 2 1.36 2 0 2 C0 1.34 0 0.68 0 0 Z " fill="#416DA2" transform="translate(67,169)"/>
<path d="M0 0 C0.81146484 -0.00386719 1.62292969 -0.00773437 2.45898438 -0.01171875 C3.30396484 -0.00011719 4.14894531 0.01148438 5.01953125 0.0234375 C5.84517578 0.01183594 6.67082031 0.00023437 7.52148438 -0.01171875 C13.27340227 0.01547708 17.56056847 1.10015269 22.83203125 3.3984375 C19.81286407 4.27976888 17.16317776 4.50498257 14.0234375 4.4609375 C13.11142578 4.45320313 12.19941406 4.44546875 11.25976562 4.4375 C9.3535149 4.41151158 7.44726489 4.38547013 5.54101562 4.359375 C4.17106445 4.34777344 4.17106445 4.34777344 2.7734375 4.3359375 C1.53122437 4.31853516 1.53122437 4.31853516 0.26391602 4.30078125 C-2.30431649 4.40391276 -4.66448692 4.83163248 -7.16796875 5.3984375 C-7.16796875 3.3984375 -7.16796875 3.3984375 -5.9284668 1.79833984 C-3.778793 0.08897505 -2.71858056 0.01261244 0 0 Z " fill="#06112B" transform="translate(60.16796875,60.6015625)"/>
<path d="M0 0 C0.33 3.3 0.66 6.6 1 10 C0.34 10 -0.32 10 -1 10 C-1 7.03 -1 4.06 -1 1 C-2.97956441 1.14033111 -4.95865141 1.2874123 -6.9375 1.4375 C-8.03964844 1.51871094 -9.14179687 1.59992188 -10.27734375 1.68359375 C-12.91109903 1.70418084 -12.91109903 1.70418084 -14 3 C-15.68183948 3.23287008 -17.3712416 3.41264166 -19.0625 3.5625 C-19.98160156 3.64628906 -20.90070312 3.73007813 -21.84765625 3.81640625 C-22.91306641 3.90728516 -22.91306641 3.90728516 -24 4 C-24.66 6.97 -25.32 9.94 -26 13 C-25.34 13.33 -24.68 13.66 -24 14 C-25.98 14.99 -25.98 14.99 -28 16 C-28.33313345 10.55882032 -28.13239568 6.56434799 -25 2 C-17.33829201 -1.13685871 -8.10704986 -0.21303197 0 0 Z " fill="#3F6292" transform="translate(67,80)"/>
<path d="M0 0 C4.85600034 1.47151525 8.54549014 4.35047748 12 8 C12.33 8.99 12.66 9.98 13 11 C10.03 11.66 7.06 12.32 4 13 C3.32694982 11.39850114 2.66177773 9.79368971 2 8.1875 C1.62875 7.29417969 1.2575 6.40085937 0.875 5.48046875 C0 3 0 3 0 0 Z " fill="#EBEBEB" transform="translate(126,60)"/>
<path d="M0 0 C4.10958767 1.45044271 7.43258745 3.51110752 11 6 C10.01 6.33 9.02 6.66 8 7 C7.34 6.67 6.68 6.34 6 6 C6 6.99 6 7.98 6 9 C6.66 9 7.32 9 8 9 C8.33 10.32 8.66 11.64 9 13 C6.625 12.3125 6.625 12.3125 4 11 C2.6875 8.375 2.6875 8.375 2 6 C0.02 6.33 -1.96 6.66 -4 7 C-4.66 5.35 -5.32 3.7 -6 2 C-4.02 2 -2.04 2 0 2 C0 1.34 0 0.68 0 0 Z " fill="#3E6FAA" transform="translate(84,160)"/>
<path d="M0 0 C0.7734375 0.2165625 0.7734375 0.2165625 1.5625 0.4375 C4.68509571 1.15809901 7.82550692 1.57266439 11 2 C11.33 3.32 11.66 4.64 12 6 C10.329375 5.7525 10.329375 5.7525 8.625 5.5 C5.27967967 4.9544542 5.27967967 4.9544542 3 5 C3 4.34 3 3.68 3 3 C1.68 3 0.36 3 -1 3 C-1 4.98 -1 6.96 -1 9 C5.27 9 11.54 9 18 9 C18 9.33 18 9.66 18 10 C7.605 10.495 7.605 10.495 -3 11 C-3 3.125 -3 3.125 0 0 Z " fill="#426CA6" transform="translate(26,146)"/>
<path d="M0 0 C0.33 1.65 0.66 3.3 1 5 C-0.65 5 -2.3 5 -4 5 C-4 5.66 -4 6.32 -4 7 C-4.639375 7.28875 -5.27875 7.5775 -5.9375 7.875 C-8.15206079 8.82823451 -8.15206079 8.82823451 -9 11 C-11.5625 11.625 -11.5625 11.625 -14 12 C-13.4355148 6.91963321 -9.56541231 4.37566537 -5.9375 1.1875 C-4 0 -4 0 0 0 Z " fill="#0C0E0C" transform="translate(36,117)"/>
<path d="M0 0 C6.70419479 -0.25552598 12.25584475 0.53885784 18.6875 2.375 C19.50283203 2.59671875 20.31816406 2.8184375 21.15820312 3.046875 C25.48586895 4.23637086 29.7567428 5.53302578 34 7 C33.67 7.66 33.34 8.32 33 9 C32.20078125 8.69964844 31.4015625 8.39929688 30.578125 8.08984375 C22.59073609 5.32425721 16.33849283 4.61776335 8 6 C8 5.01 8 4.02 8 3 C5.36 2.34 2.72 1.68 0 1 C0 0.67 0 0.34 0 0 Z " fill="#3E6CA4" transform="translate(31,161)"/>
<path d="M0 0 C0 6.27 0 12.54 0 19 C-9.04117941 22.17931584 -16.43396505 23.5636289 -26 23 C-26 22.67 -26 22.34 -26 22 C-24.40671875 21.83564453 -24.40671875 21.83564453 -22.78125 21.66796875 C-15.4568956 20.86318973 -8.7683195 20.10214644 -2 17 C-2 12.71 -2 8.42 -2 4 C-2.99 4 -3.98 4 -5 4 C-5 3.34 -5 2.68 -5 2 C-1.125 0 -1.125 0 0 0 Z " fill="#41699E" transform="translate(114,173)"/>
<path d="M0 0 C0.56380371 0.17958252 1.12760742 0.35916504 1.70849609 0.54418945 C8.93797378 2.78594965 16.24434497 4.52129861 23.625 6.1875 C25.41744141 6.59645508 25.41744141 6.59645508 27.24609375 7.01367188 C30.16338708 7.67881475 33.08134644 8.34085635 36 9 C35.34 9.66 34.68 10.32 34 11 C31.94042969 10.89160156 31.94042969 10.89160156 29.421875 10.390625 C28.50792969 10.21273437 27.59398438 10.03484375 26.65234375 9.8515625 C25.69457031 9.65304688 24.73679687 9.45453125 23.75 9.25 C22.80769531 9.06695312 21.86539063 8.88390625 20.89453125 8.6953125 C16.13317808 7.74704862 11.57428343 6.65632759 7 5 C5.3603125 4.5359375 5.3603125 4.5359375 3.6875 4.0625 C2.800625 3.711875 1.91375 3.36125 1 3 C0.67 2.01 0.34 1.02 0 0 Z " fill="#436BA4" transform="translate(58,32)"/>
<path d="M0 0 C15.18 0.33 30.36 0.66 46 1 C45.01 2.65 44.02 4.3 43 6 C42.34 5.34 41.68 4.68 41 4 C41.33 3.34 41.66 2.68 42 2 C40.79875488 2.03552979 39.59750977 2.07105957 38.35986328 2.10766602 C33.91338938 2.23779805 29.46674685 2.36104144 25.02001953 2.48217773 C23.09353392 2.53562804 21.16709958 2.59095971 19.24072266 2.64819336 C16.4756984 2.73001986 13.71056186 2.80513291 10.9453125 2.87890625 C10.0806839 2.90594131 9.2160553 2.93297638 8.32522583 2.96083069 C2.22774341 3.11387171 2.22774341 3.11387171 0 2 C0 1.34 0 0.68 0 0 Z " fill="#EEEDEC" transform="translate(231,48)"/>
<path d="M0 0 C2 2 2 2 3.4375 4.5 C4.90965916 7.23702985 4.90965916 7.23702985 8 9 C8 9.66 8 10.32 8 11 C2.72250715 10.46148032 -1.25645564 9.22656164 -6 7 C-5.071875 6.6596875 -5.071875 6.6596875 -4.125 6.3125 C-1.38589791 4.62070165 -0.94975528 3.00755839 0 0 Z " fill="#040F22" transform="translate(44,38)"/>
<path d="M0 0 C6.05167724 2.4206709 6.05167724 2.4206709 8 6 C8.29296875 8.578125 8.29296875 8.578125 8.1875 11.25 C8.16042969 12.14203125 8.13335937 13.0340625 8.10546875 13.953125 C8.07066406 14.62859375 8.03585938 15.3040625 8 16 C7.67 16 7.34 16 7 16 C6.67 12.37 6.34 8.74 6 5 C5.01 5 4.02 5 3 5 C3 7.64 3 10.28 3 13 C2.34 13 1.68 13 1 13 C0.67 8.71 0.34 4.42 0 0 Z " fill="#436EA6" transform="translate(126,133)"/>
<path d="M0 0 C0.33 0 0.66 0 1 0 C1.07476563 0.56847656 1.14953125 1.13695312 1.2265625 1.72265625 C2.29744327 8.01145604 4.48053302 11.56650114 9 16 C9.66 16.66 10.32 17.32 11 18 C6.94393835 17.53199289 3.53411321 17.12046792 0 15 C0.185625 14.38125 0.37125 13.7625 0.5625 13.125 C1.23686176 10.95839822 1.23686176 10.95839822 0 9 C-0.06950541 7.45976004 -0.08452357 5.91665012 -0.0625 4.375 C-0.05347656 3.55773437 -0.04445313 2.74046875 -0.03515625 1.8984375 C-0.02355469 1.27195313 -0.01195313 0.64546875 0 0 Z " fill="#02081D" transform="translate(26,131)"/>
<path d="M0 0 C1.98 0 3.96 0 6 0 C5.01 0.66 4.02 1.32 3 2 C2.7107561 4.76348514 2.7107561 4.76348514 2.9375 7.875 C3.1310194 11.91409715 3.16085372 14.51909168 1 18 C1.66 18.33 2.32 18.66 3 19 C1.68 19 0.36 19 -1 19 C-0.67 12.73 -0.34 6.46 0 0 Z " fill="#4272AC" transform="translate(89,176)"/>
<path d="M0 0 C0.66 0 1.32 0 2 0 C2.66 1.32 3.32 2.64 4 4 C4.99 3.01 5.98 2.02 7 1 C7.99 3.97 8.98 6.94 10 10 C8.02 10.33 6.04 10.66 4 11 C2.68 7.37 1.36 3.74 0 0 Z " fill="#0D0F18" transform="translate(119,59)"/>
<path d="M0 0 C1.90845703 0.29197266 1.90845703 0.29197266 3.85546875 0.58984375 C5.31919922 0.82380859 5.31919922 0.82380859 6.8125 1.0625 C7.4375 3.875 7.4375 3.875 7.8125 7.0625 C6.8225 8.5475 6.8225 8.5475 5.8125 10.0625 C4.6875 4.3125 4.6875 4.3125 5.8125 2.0625 C4.45705078 2.09730469 4.45705078 2.09730469 3.07421875 2.1328125 C1.89472656 2.15085937 0.71523437 2.16890625 -0.5 2.1875 C-2.25763672 2.22230469 -2.25763672 2.22230469 -4.05078125 2.2578125 C-7.1875 2.0625 -7.1875 2.0625 -10.1875 0.0625 C-6.40036807 -1.19987731 -3.93098067 -0.61308873 0 0 Z " fill="#0A1322" transform="translate(92.1875,102.9375)"/>
<path d="M0 0 C3.52892447 1.41156979 6.54862203 2.77384533 9.8125 4.625 C10.99779297 5.29402344 10.99779297 5.29402344 12.20703125 5.9765625 C12.79871094 6.31429688 13.39039063 6.65203125 14 7 C14 7.33 14 7.66 14 8 C12.35 8 10.7 8 9 8 C9 7.34 9 6.68 9 6 C6.03 5.505 6.03 5.505 3 5 C2.34 6.98 1.68 8.96 1 11 C0.67 11 0.34 11 0 11 C0 7.37 0 3.74 0 0 Z " fill="#3E6191" transform="translate(43,24)"/>
<path d="M0 0 C0.33 0 0.66 0 1 0 C1.33 5.94 1.66 11.88 2 18 C4.64 16.68 7.28 15.36 10 14 C7.64285714 18.71428571 7.64285714 18.71428571 4 20 C2.68 20 1.36 20 0 20 C0 13.4 0 6.8 0 0 Z " fill="#0E233E" transform="translate(120,169)"/>
<path d="M0 0 C6.875 2.75 6.875 2.75 8 5 C5.69 5 3.38 5 1 5 C1 9.62 1 14.24 1 19 C0.67 19 0.34 19 0 19 C-0.33 14.05 -0.66 9.1 -1 4 C-0.34 4 0.32 4 1 4 C0.67 2.68 0.34 1.36 0 0 Z " fill="#041630" transform="translate(88,171)"/>
<path d="M0 0 C1.65 0.33 3.3 0.66 5 1 C5.33 2.32 5.66 3.64 6 5 C5.34 5 4.68 5 4 5 C4 4.01 4 3.02 4 2 C2.02463255 2.34786708 2.02463255 2.34786708 0 3 C-0.33 3.66 -0.66 4.32 -1 5 C-1.99 5 -2.98 5 -4 5 C-4 5.66 -4 6.32 -4 7 C-6.97 6.505 -6.97 6.505 -10 6 C-9.34 5.67 -8.68 5.34 -8 5 C-8 4.34 -8 3.68 -8 3 C-5.03 3.495 -5.03 3.495 -2 4 C-1.34 2.68 -0.68 1.36 0 0 Z " fill="#08132C" transform="translate(82,165)"/>
<path d="M0 0 C-0.33 6.27 -0.66 12.54 -1 19 C-1.33 19 -1.66 19 -2 19 C-2.33 13.39 -2.66 7.78 -3 2 C-4.98 2.66 -6.96 3.32 -9 4 C-6.66201846 -1.17695912 -5.98901277 -1.19780255 0 0 Z " fill="#0E2039" transform="translate(116,172)"/>
<path d="M0 0 C2.64 0.99 5.28 1.98 8 3 C6.68 3.33 5.36 3.66 4 4 C7.47463422 9.65718492 7.47463422 9.65718492 13 13 C11.68 13.33 10.36 13.66 9 14 C1.33257403 5.92255125 1.33257403 5.92255125 0 0 Z " fill="#416798" transform="translate(37,44)"/>
<path d="M0 0 C4.95 1.98 4.95 1.98 10 4 C10 4.99 10 5.98 10 7 C7.03 6.67 4.06 6.34 1 6 C1.33 5.01 1.66 4.02 2 3 C1.34 2.67 0.68 2.34 0 2 C0 1.34 0 0.68 0 0 Z " fill="#051222" transform="translate(64,163)"/>
<path d="M0 0 C0 0.99 0 1.98 0 3 C-3.67410785 4.17571451 -7.16929183 4.07366746 -11 4 C-11 3.01 -11 2.02 -11 1 C-7.26562152 0.12132271 -3.83225427 -0.08912219 0 0 Z " fill="#2A4256" transform="translate(123,113)"/>
<path d="M0 0 C2.70860665 -0.05429278 5.41610901 -0.09381211 8.125 -0.125 C8.88554688 -0.14175781 9.64609375 -0.15851563 10.4296875 -0.17578125 C15.03270731 -0.21546246 18.66464004 0.24092423 23 2 C23 2.33 23 2.66 23 3 C21.54176788 3.0270043 20.08339325 3.04639787 18.625 3.0625 C17.81289063 3.07410156 17.00078125 3.08570313 16.1640625 3.09765625 C14 3 14 3 12 2 C9.9625237 1.77141886 7.91959697 1.58975722 5.875 1.4375 C4.23144531 1.31181641 4.23144531 1.31181641 2.5546875 1.18359375 C1.71164063 1.12300781 0.86859375 1.06242188 0 1 C0 0.67 0 0.34 0 0 Z " fill="#0B1933" transform="translate(28,156)"/>
<path d="M0 0 C0.93423645 3.01031744 1.04449911 3.86650268 0 7 C0.95012124 9.02417134 1.94991347 11.02583732 3 13 C3 13.66 3 14.32 3 15 C3.66 15.33 4.32 15.66 5 16 C4.01 16 3.02 16 2 16 C-0.80296831 12.71652284 -1.93540329 10.63520097 -2.375 6.3125 C-2 3 -2 3 0 0 Z " fill="#406493" transform="translate(29,128)"/>
<path d="M0 0 C0.969375 0.7425 1.93875 1.485 2.9375 2.25 C3.75541016 2.87648438 3.75541016 2.87648438 4.58984375 3.515625 C6 5 6 5 7 9 C4.36 8.01 1.72 7.02 -1 6 C-0.67 4.02 -0.34 2.04 0 0 Z " fill="#2C3946" transform="translate(145,104)"/>
<path d="M0 0 C1.72089844 -0.02126953 1.72089844 -0.02126953 3.4765625 -0.04296875 C6.375 0.1875 6.375 0.1875 8.375 2.1875 C2.765 2.1875 -2.845 2.1875 -8.625 2.1875 C-8.295 3.5075 -7.965 4.8275 -7.625 6.1875 C-8.945 5.5275 -10.265 4.8675 -11.625 4.1875 C-11.295 3.1975 -10.965 2.2075 -10.625 1.1875 C-7.24645573 -0.19754303 -3.60364734 0.02033661 0 0 Z " fill="#040D1D" transform="translate(35.625,159.8125)"/>
<path d="M0 0 C1.03159626 3.09478879 0.97482862 4.52631393 0.5625 7.6875 C0.46066406 8.49574219 0.35882813 9.30398437 0.25390625 10.13671875 C0.17011719 10.75160156 0.08632813 11.36648437 0 12 C1.32 11.34 2.64 10.68 4 10 C3.34 12.97 2.68 15.94 2 19 C1.67 19 1.34 19 1 19 C1 17.35 1 15.7 1 14 C0.01 14 -0.98 14 -2 14 C-2.3690205 4.58997722 -2.3690205 4.58997722 0 0 Z " fill="#020C23" transform="translate(40,83)"/>
<path d="M0 0 C1.88457202 3.76914404 2.49881499 5.00948011 2 9 C0.625 11.3125 0.625 11.3125 -1 13 C-1.66 13 -2.32 13 -3 13 C-2.01 8.71 -1.02 4.42 0 0 Z " fill="#4978B1" transform="translate(115,142)"/>
<path d="M0 0 C1.98 0 3.96 0 6 0 C3.61363468 2.76315985 1.45958686 3.87271889 -2 5 C-5.11328125 5.1953125 -5.11328125 5.1953125 -8.3125 5.125 C-9.38113281 5.10695313 -10.44976562 5.08890625 -11.55078125 5.0703125 C-12.35902344 5.04710938 -13.16726562 5.02390625 -14 5 C-14 4.67 -14 4.34 -14 4 C-9.38 3.67 -4.76 3.34 0 3 C0 2.01 0 1.02 0 0 Z " fill="#2B3745" transform="translate(123,113)"/>
<path d="M0 0 C0.33 0 0.66 0 1 0 C1.26404456 6.86515862 0.25841946 13.25846717 -1 20 C-1.33 20 -1.66 20 -2 20 C-2.3690205 6.3667426 -2.3690205 6.3667426 0 0 Z " fill="#3F6496" transform="translate(43,95)"/>
<path d="M0 0 C0.66 0.33 1.32 0.66 2 1 C-0.57516622 3.63746863 -2.54331396 4.21887499 -6.109375 4.29296875 C-7.65652231 4.27313353 -9.20353396 4.2375101 -10.75 4.1875 C-11.54277344 4.17396484 -12.33554688 4.16042969 -13.15234375 4.14648438 C-15.10185564 4.11125223 -17.05101626 4.05744821 -19 4 C-19 3.67 -19 3.34 -19 3 C-17.87980469 2.86722656 -16.75960937 2.73445312 -15.60546875 2.59765625 C-14.13279271 2.41943431 -12.66013753 2.24103989 -11.1875 2.0625 C-10.44951172 1.97548828 -9.71152344 1.88847656 -8.95117188 1.79882812 C-5.83266879 1.41783454 -2.98891878 0.99630626 0 0 Z " fill="#01091C" transform="translate(109,193)"/>
<path d="M0 0 C4.56751282 1.1745033 6.53553217 3.40502931 9.0625 7.1796875 C10.28179285 9.54714779 10.39636369 11.38399963 10 14 C9.34 14 8.68 14 8 14 C7.731875 12.906875 7.46375 11.81375 7.1875 10.6875 C6.08641352 7.26833673 5.57525074 6.22408019 3 4 C3 3.34 3 2.68 3 2 C2.01 2 1.02 2 0 2 C0 1.34 0 0.68 0 0 Z " fill="#44679C" transform="translate(132,159)"/>
<path d="M0 0 C1.41623216 -0.05447047 2.83308191 -0.09300508 4.25 -0.125 C5.03890625 -0.14820313 5.8278125 -0.17140625 6.640625 -0.1953125 C9.22046936 0.01825077 10.7475059 0.77749252 13 2 C13.66 2 14.32 2 15 2 C15.33 2.99 15.66 3.98 16 5 C10.66666667 3.66666667 5.33333333 2.33333333 0 1 C0 0.67 0 0.34 0 0 Z " fill="#030F20" transform="translate(86,39)"/>
<path d="M0 0 C0.0825 0.5775 0.165 1.155 0.25 1.75 C1.20531013 4.6159304 2.78469173 5.9990764 5 8 C1.65626525 7.44271087 -1.03312999 6.64826111 -4 5 C-2.68 3.35 -1.36 1.7 0 0 Z " fill="#2C3846" transform="translate(109,100)"/>
<path d="M0 0 C1.2065625 0.0309375 1.2065625 0.0309375 2.4375 0.0625 C2.7675 0.7225 3.0975 1.3825 3.4375 2.0625 C-0.5225 4.0425 -0.5225 4.0425 -4.5625 6.0625 C-3.48963568 0.08511307 -3.48963568 0.08511307 0 0 Z " fill="#416898" transform="translate(116.5625,83.9375)"/>
<path d="M0 0 C1.24791579 2.94961915 0.98579669 4.03945364 -0.125 7.125 C-2.25000279 10.38333761 -3.43892231 10.77405522 -7 12 C-6.57847656 11.38511719 -6.15695313 10.77023438 -5.72265625 10.13671875 C-4.90087891 8.92435547 -4.90087891 8.92435547 -4.0625 7.6875 C-3.51722656 6.88699219 -2.97195312 6.08648437 -2.41015625 5.26171875 C-0.86162674 2.9741857 -0.86162674 2.9741857 0 0 Z " fill="#3E669B" transform="translate(126,146)"/>
<path d="M0 0 C3.63 1.65 7.26 3.3 11 5 C11 5.33 11 5.66 11 6 C3.54062751 5.38857603 3.54062751 5.38857603 1 3.5625 C0 2 0 2 0 0 Z " fill="#3F6B9C" transform="translate(52,143)"/>
<path d="M0 0 C0.99 0.66 1.98 1.32 3 2 C2.67 2.66 2.34 3.32 2 4 C-4.625 4.25 -4.625 4.25 -8 2 C-6.865625 1.855625 -5.73125 1.71125 -4.5625 1.5625 C-1.19222799 1.38828522 -1.19222799 1.38828522 0 0 Z " fill="#2F76BC" transform="translate(49,152)"/>
<path d="M0 0 C0 0.99 0 1.98 0 3 C2.97 3 5.94 3 9 3 C9 3.33 9 3.66 9 4 C-1.55808656 4.3690205 -1.55808656 4.3690205 -6 2 C-2.25 0 -2.25 0 0 0 Z " fill="#0E1727" transform="translate(112,118)"/>
<path d="M0 0 C2.31 0 4.62 0 7 0 C7 0.33 7 0.66 7 1 C5.02 1 3.04 1 1 1 C1.33 1.99 1.66 2.98 2 4 C0.0625 7.1875 0.0625 7.1875 -2 10 C-2 6.38970831 -1.03907418 3.44193324 0 0 Z " fill="#2A3546" transform="translate(138,77)"/>
<path d="M0 0 C2.0625 0.4375 2.0625 0.4375 4 1 C3.67 2.65 3.34 4.3 3 6 C2.34 6 1.68 6 1 6 C0.34 4.35 -0.32 2.7 -1 1 C-0.67 0.67 -0.34 0.34 0 0 Z " fill="#3176B5" transform="translate(134,166)"/>
<path d="M0 0 C2.31 0.33 4.62 0.66 7 1 C7 1.66 7 2.32 7 3 C5.35 3.66 3.7 4.32 2 5 C1.34 3.35 0.68 1.7 0 0 Z " fill="#416BA8" transform="translate(78,162)"/>
<path d="M0 0 C0.66 0 1.32 0 2 0 C1.82374165 2.37948772 1.30280227 3.70225849 -0.40234375 5.37890625 C-1.90649092 6.62115486 -3.45129851 7.81376056 -5 9 C-4.67 7.68 -4.34 6.36 -4 5 C-3.34 5 -2.68 5 -2 5 C-2 4.34 -2 3.68 -2 3 C-1.34 3 -0.68 3 0 3 C0 2.01 0 1.02 0 0 Z " fill="#809EBF" transform="translate(108,156)"/>
<path d="M0 0 C1.98 1.65 3.96 3.3 6 5 C5.34 5.66 4.68 6.32 4 7 C3.34 6.34 2.68 5.68 2 5 C-0.06874034 4.3574765 -0.06874034 4.3574765 -2 4 C-1.34 3.67 -0.68 3.34 0 3 C0 2.01 0 1.02 0 0 Z " fill="#4278BA" transform="translate(73,140)"/>
<path d="M0 0 C2.475 0.99 2.475 0.99 5 2 C4.34 2.66 3.68 3.32 3 4 C2.59952556 6.32275177 2.2602896 8.65739357 2 11 C1.67 11 1.34 11 1 11 C0.67 7.37 0.34 3.74 0 0 Z " fill="#3D5D88" transform="translate(126,133)"/>
<path d="M0 0 C0.99 0.66 1.98 1.32 3 2 C2.01 3.485 2.01 3.485 1 5 C2.32 5.33 3.64 5.66 5 6 C3.02 6 1.04 6 -1 6 C-1.33 5.01 -1.66 4.02 -2 3 C-1.34 2.01 -0.68 1.02 0 0 Z " fill="#2D3C4D" transform="translate(88,93)"/>
<path d="M0 0 C4.29 0 8.58 0 13 0 C11.515 2.475 11.515 2.475 10 5 C9.34 4.34 8.68 3.68 8 3 C8.33 2.34 8.66 1.68 9 1 C6.03 1 3.06 1 0 1 C0 0.67 0 0.34 0 0 Z " fill="#F5F5F3" transform="translate(264,49)"/>
<path d="M0 0 C1.98 0 3.96 0 6 0 C6.33 1.32 6.66 2.64 7 4 C4.69 3.34 2.38 2.68 0 2 C0 1.34 0 0.68 0 0 Z " fill="#3077BB" transform="translate(73,163)"/>
<path d="M0 0 C1.32 0.33 2.64 0.66 4 1 C5.37432457 4.81756824 4.67975039 8.07255329 4 12 C3.67 12 3.34 12 3 12 C2.86722656 11.30132812 2.73445312 10.60265625 2.59765625 9.8828125 C2.42105469 8.97273437 2.24445313 8.06265625 2.0625 7.125 C1.88847656 6.22007812 1.71445313 5.31515625 1.53515625 4.3828125 C1.10036299 2.00043683 1.10036299 2.00043683 0 0 Z " fill="#081730" transform="translate(131,135)"/>
<path d="M0 0 C2.97 0.495 2.97 0.495 6 1 C6.33 1.99 6.66 2.98 7 4 C2.25 3.125 2.25 3.125 0 2 C0 1.34 0 0.68 0 0 Z " fill="#050F1A" transform="translate(117,96)"/>
<path d="M0 0 C3.3 0.99 6.6 1.98 10 3 C9.67 3.66 9.34 4.32 9 5 C7.68428397 4.7452486 6.37239624 4.47065859 5.0625 4.1875 C4.33160156 4.03667969 3.60070313 3.88585938 2.84765625 3.73046875 C2.23792969 3.48941406 1.62820312 3.24835937 1 3 C0.67 2.01 0.34 1.02 0 0 Z " fill="#3E669C" transform="translate(58,32)"/>
<path d="M0 0 C3.3 0.99 6.6 1.98 10 3 C10 3.99 10 4.98 10 6 C5.56909529 4.79157144 3.01887244 3.48331435 0 0 Z " fill="#040F25" transform="translate(45,24)"/>
<path d="M0 0 C0.66 0.66 1.32 1.32 2 2 C2.66 1.67 3.32 1.34 4 1 C4 2.65 4 4.3 4 6 C2.68 6 1.36 6 0 6 C0 4.02 0 2.04 0 0 Z " fill="#040F1F" transform="translate(84,190)"/>
<path d="M0 0 C0.66 0.66 1.32 1.32 2 2 C1.625 5.125 1.625 5.125 1 8 C0.34 7.67 -0.32 7.34 -1 7 C-1.04254356 5.00045254 -1.04080783 2.99958364 -1 1 C-0.67 0.67 -0.34 0.34 0 0 Z " fill="#3176BA" transform="translate(131,140)"/>
<path d="M0 0 C3.36591866 1.44253657 5.51047079 3.33264727 8 6 C7.01 6 6.02 6 5 6 C5 5.34 5 4.68 5 4 C3.68 4 2.36 4 1 4 C0.67 2.68 0.34 1.36 0 0 Z " fill="#3E679A" transform="translate(106,47)"/>
<path d="M0 0 C1.32 0 2.64 0 4 0 C4 0.99 4 1.98 4 3 C4.99 3 5.98 3 7 3 C6.67 3.99 6.34 4.98 6 6 C3.97945196 4.35830472 1.97956942 2.69088222 0 1 C0 0.67 0 0.34 0 0 Z " fill="#3F6EA2" transform="translate(33,171)"/>
<path d="M0 0 C2.475 0.495 2.475 0.495 5 1 C5 1.99 5 2.98 5 4 C3.35 3.67 1.7 3.34 0 3 C0 2.01 0 1.02 0 0 Z " fill="#000414" transform="translate(69,166)"/>
<path d="M0 0 C0.33 0.66 0.66 1.32 1 2 C0.06421005 4.35981813 -0.93347808 6.69631264 -2 9 C-2.66 9 -3.32 9 -4 9 C-4.33 8.01 -4.66 7.02 -5 6 C-3.59554165 3.7363436 -1.8032087 1.9791315 0 0 Z " fill="#030F24" transform="translate(127,158)"/>
<path d="M0 0 C2.31 0.33 4.62 0.66 7 1 C7 1.66 7 2.32 7 3 C7.66 3 8.32 3 9 3 C8.67 3.66 8.34 4.32 8 5 C5.36 3.68 2.72 2.36 0 1 C0 0.67 0 0.34 0 0 Z " fill="#07162B" transform="translate(63,148)"/>
<path d="M0 0 C1.65 1.65 3.3 3.3 5 5 C0.25 4.25 0.25 4.25 -2 2 C-1.34 1.34 -0.68 0.68 0 0 Z " fill="#4578BC" transform="translate(63,130)"/>
<path d="M0 0 C-0.33 0.99 -0.66 1.98 -1 3 C-3.31 3 -5.62 3 -8 3 C-8.33 2.34 -8.66 1.68 -9 1 C-5.92677456 0.08941469 -3.19902639 -0.08886184 0 0 Z " fill="#7AAAE1" transform="translate(69,90)"/>
</svg>
