<svg version="1.1" xmlns="http://www.w3.org/2000/svg" width="275" height="180">
<path d="M0 0 C3.64169378 3.42783592 7.00589338 7.11894764 10.375 10.8125 C10.85396729 11.33658447 11.33293457 11.86066895 11.82641602 12.40063477 C22.28983361 23.87817461 22.28983361 23.87817461 24.6269989 27.57011414 C27.26927488 30.27572985 28.65164113 30.60578757 32.36990356 30.71096802 C33.07388275 30.70556 33.77786194 30.70015198 34.50317383 30.69458008 C35.25329239 30.70816055 36.00341095 30.72174103 36.77626038 30.73573303 C39.25367589 30.77300215 41.72936033 30.77306524 44.20703125 30.76953125 C45.93333103 30.78052212 47.65962445 30.79255621 49.38591003 30.80558777 C53.00494061 30.82649683 56.62336375 30.82777388 60.24243164 30.81665039 C64.87021213 30.80497459 69.49524003 30.85241593 74.12251759 30.91611195 C77.68897114 30.95679603 81.25476627 30.96046797 84.82141685 30.95371056 C86.52663189 30.9559112 88.23188084 30.97074441 89.93686867 30.99866676 C99.16843569 31.41949532 99.16843569 31.41949532 107.53697205 28.27987671 C109.31766494 26.26842226 110.6467357 24.31258721 112 22 C112.98767649 20.79461059 113.99398363 19.60396276 115.02734375 18.4375 C115.74446533 17.58901489 115.74446533 17.58901489 116.47607422 16.72338867 C129.93713029 0.84941694 129.93713029 0.84941694 135.1875 -1.3125 C139.24754066 -0.86138437 140.46190896 0.88038585 143 4 C143.60127258 7.14485168 143.60127258 7.14485168 143.56762695 10.71801758 C143.56872215 11.69934662 143.56872215 11.69934662 143.56983948 12.70050049 C143.56637338 14.849373 143.52756664 16.99604056 143.48828125 19.14453125 C143.47894945 20.63952958 143.47183507 22.13454326 143.46684265 23.62956238 C143.44780118 27.55413429 143.39872681 31.47777298 143.34332275 35.40197754 C143.2920676 39.41043474 143.26931536 43.41904355 143.24414062 47.42773438 C143.19060336 55.28563111 143.10269263 63.14259176 143 71 C150.59 71 158.18 71 166 71 C166 75.95 166 80.9 166 86 C153.46 86 140.92 86 128 86 C127.67 66.86 127.34 47.72 127 28 C120.93253012 34.69619518 120.93253012 34.69619518 115.0625 41.5625 C113 44 113 44 111 45 C108.20202667 45.16632555 105.42654429 45.27310022 102.62573242 45.33569336 C101.32525467 45.36964455 101.32525467 45.36964455 99.99850464 45.40428162 C91.9716543 45.60194737 83.94322175 45.71704505 75.9145155 45.80750179 C70.52468406 45.86919763 65.13830643 45.9575111 59.75024414 46.11108398 C54.53446998 46.25910146 49.32183086 46.33693001 44.10408974 46.36721992 C42.12434693 46.3904093 40.1447217 46.43778972 38.16618919 46.51078606 C21.92032773 47.08254115 21.92032773 47.08254115 15.90737915 41.92849731 C12.5432567 38.56307021 9.71891604 34.89353687 7 31 C6.01 29.68 5.02 28.36 4 27 C3.67 46.47 3.34 65.94 3 86 C-9.21 86 -21.42 86 -34 86 C-34 81.05 -34 76.1 -34 71 C-26.41 71 -18.82 71 -11 71 C-11.01571045 68.95578857 -11.0314209 66.91157715 -11.04760742 64.80541992 C-11.09728693 58.05604053 -11.13044237 51.30665311 -11.15543652 44.5571394 C-11.17110146 40.46434557 -11.19235458 36.37173886 -11.22631836 32.27905273 C-11.25888267 28.33035248 -11.27684677 24.38183235 -11.28463173 20.43300819 C-11.29018054 18.92548092 -11.30101595 17.41796364 -11.31719017 15.91051292 C-11.3389263 13.80104541 -11.34196864 11.69232491 -11.34057617 9.58276367 C-11.34723801 8.38141281 -11.35389984 7.18006195 -11.36076355 5.94230652 C-11 3 -11 3 -9.66621399 1.15107727 C-6.24322897 -1.21363715 -3.83272932 -1.27757644 0 0 Z " fill="#6b7280" transform="translate(68,32)"/>
<path d="M0 0 C12.54 0 25.08 0 38 0 C38 4.95 38 9.9 38 15 C25.46 15 12.92 15 0 15 C0 10.05 0 5.1 0 0 Z " fill="#6b7280" transform="translate(196,132)"/>
<path d="M0 0 C12.21 0 24.42 0 37 0 C37 4.95 37 9.9 37 15 C24.79 15 12.58 15 0 15 C0 10.05 0 5.1 0 0 Z " fill="#6b7280" transform="translate(34,132)"/>
<path d="M0 0 C2.89229953 1.66307223 3.67912216 2.9317359 4.62890625 6.09375 C5.0793315 8.5284811 5.27657585 10.53715788 5 13 C2.625 16 2.625 16 0 18 C-0.33 18.33 -0.66 18.66 -1 19 C-5.16400962 19.40038554 -7.32250696 19.44184328 -10.875 17.125 C-13.78710658 14.21289342 -13.96068305 13.3997223 -14.375 9.1875 C-14.30791111 5.83915436 -13.97938747 4.96808382 -12.0625 2 C-7.95443143 -0.68282029 -4.77771872 -0.9287528 0 0 Z " fill="#6b7280" transform="translate(171,99)"/>
<path d="M0 0 C2.89229953 1.66307223 3.67912216 2.9317359 4.62890625 6.09375 C5.0793315 8.5284811 5.27657585 10.53715788 5 13 C2.625 16 2.625 16 0 18 C-0.33 18.33 -0.66 18.66 -1 19 C-5.16400962 19.40038554 -7.32250696 19.44184328 -10.875 17.125 C-13.78710658 14.21289342 -13.96068305 13.3997223 -14.375 9.1875 C-14.30791111 5.83915436 -13.97938747 4.96808382 -12.0625 2 C-7.95443143 -0.68282029 -4.77771872 -0.9287528 0 0 Z " fill="#6b7280" transform="translate(106,99)"/>
</svg>
